<svg width="136" height="60" viewBox="0 0 136 60" fill="none" xmlns="http://www.w3.org/2000/svg">
<g opacity="0.2">
<path d="M94.4865 19.7007C93.429 17.2855 90.9454 15.9567 88.3871 16.2633C85.7805 16.5738 83.6841 18.4553 82.8313 20.9501C81.9562 23.513 82.5743 26.3637 84.1792 28.4875C85.4454 30.1608 87.3742 31.4025 89.426 31.9136C88.4019 32.2468 87.4636 32.8222 86.7003 33.5831C85.9852 33.0644 85.1772 32.6897 84.3208 32.4777C83.5202 32.2808 82.6228 32.171 81.7887 32.3073C82.2094 30.9406 82.3323 29.4869 82.0605 28.0635C81.7291 26.3258 80.8056 24.7131 79.5172 23.513C79.074 22.8165 78.7426 22.0442 78.5713 21.2416C78.1581 19.3336 78.657 17.3196 79.8858 15.8204C80.4965 15.0784 81.2896 14.4159 82.1983 14.0941C82.6786 13.9237 83.2 13.8632 83.7027 13.939C84.0266 13.9882 84.306 14.1055 84.574 14.2645C84.5666 14.2872 84.5628 14.31 84.5591 14.3364C84.4548 14.768 85.006 14.9724 85.2369 14.628C85.3337 14.4841 85.4192 14.3289 85.5013 14.1737C85.5236 14.1471 85.5422 14.1169 85.5646 14.0903C86.246 13.6399 86.9907 13.3862 87.8471 13.3218C88.8303 13.2462 89.832 13.3446 90.7852 13.5944C94.0211 14.4348 96.8363 17.0508 97.6555 20.3861C98.3072 23.0512 97.689 26.0306 96.058 28.2225C95.2462 28.7373 94.3227 29.0819 93.2988 29.1802C91.5188 29.3545 89.6643 28.6616 88.6068 27.1436C87.635 25.7542 87.5753 23.9483 88.5137 22.5174C89.3739 21.2075 91.5337 20.3784 92.7141 21.764C93.2243 22.3622 93.3657 23.3162 92.9822 24.0165C92.7811 24.3875 92.4646 24.6752 92.1109 24.8948C91.9991 24.9668 91.8651 25.0122 91.7608 25.0917C91.6863 25.1485 91.6342 25.2279 91.5635 25.2924C91.3772 25.4513 91.1315 25.493 90.8969 25.5233C90.8112 25.5346 90.7964 25.6406 90.8783 25.6746C91.1129 25.7656 91.355 25.811 91.5969 25.8677C91.8279 25.9208 92.0364 25.9851 92.2709 25.917C92.4385 25.8677 92.5912 25.7996 92.7364 25.7277C93.6078 25.4476 94.3339 24.6184 94.6654 23.7705C95.1717 22.4606 95.0451 20.9691 94.4903 19.7007H94.4865Z" fill="#83CDCE"/>
<path d="M88.4758 43.9105C87.7013 43.1913 86.9342 42.4 86.4203 41.4611C85.5266 39.8333 85.4074 37.8269 86.1076 36.1005C87.3289 33.0796 91.2016 31.6373 94.0317 33.2235C95.3424 33.9578 96.3925 35.2185 96.8579 36.6723C97.3719 38.2774 97.1744 40.2459 95.8489 41.3931C94.6014 42.4758 92.6539 42.5477 91.3878 41.4536C90.0287 40.2762 89.8909 38.1828 91.2352 36.9411C91.8942 36.3315 92.8884 36.0854 93.7486 36.3391C94.5977 36.589 95.2232 37.4029 95.1451 38.319C95.0743 39.1518 94.2923 39.8219 93.4582 39.6782C93.0374 39.6061 92.613 39.2958 92.5273 38.8527C92.4752 38.5727 92.598 38.2319 92.8848 38.1335C93.1678 38.0388 93.4508 38.2622 93.4432 38.5575C93.4432 38.7657 93.7524 38.7657 93.7598 38.5575C93.7785 38.1789 93.5103 37.8458 93.1492 37.7663C92.747 37.6754 92.3671 37.9518 92.2032 38.3115C92.0171 38.7203 92.1399 39.1936 92.4155 39.5267C92.9741 40.2005 93.9795 40.174 94.6572 39.7008C95.387 39.1935 95.5957 38.2622 95.3127 37.4332C95.0035 36.5246 94.2103 35.9264 93.2794 35.8016C92.2703 35.6652 91.25 36.1158 90.5536 36.8501C89.8201 37.6263 89.4961 38.7203 89.6153 39.7841C89.876 42.0858 92.0841 43.5774 94.2848 43.2632C94.6199 43.2139 94.9365 43.1269 95.2382 43.0095C96.7686 44.9138 99.379 45.8148 101.717 45.9964C107.467 46.4393 112.427 42.7218 117.264 40.1437C119.781 38.8036 122.477 37.6338 125.341 37.4255C127.192 37.2893 129.117 37.543 130.818 38.3115C130.55 38.2396 130.275 38.1789 129.995 38.1373C127.545 37.7776 125.009 38.5159 122.891 39.7576C120.534 41.1356 118.605 43.1534 116.583 44.963C114.535 46.7953 112.326 48.3436 109.705 49.1992C107.162 50.0282 104.41 50.2668 101.77 49.8238C96.899 49.0099 93.0523 45.6861 88.5279 43.9635C88.5093 43.9484 88.4944 43.9295 88.4758 43.9144V43.9105Z" fill="#08B4BE"/>
<path d="M103.472 41.1583C105.829 41.4611 108.239 41.0031 110.51 40.3822C112.86 39.7424 115.143 38.868 117.466 38.141C119.786 37.4143 122.177 36.8199 124.616 36.782C126.284 36.7555 127.93 37.0091 129.487 37.5732C128.056 37.1378 126.522 37.028 125.022 37.1643C119.291 37.6943 114.673 41.6429 109.59 43.9749C107.062 45.1333 104.314 45.9435 101.517 45.6822C100.281 45.5649 99.0485 45.2506 97.9276 44.6979C97.0041 44.2436 96.2147 43.6228 95.4961 42.8997C97.1457 42.1349 98.1548 40.3746 98.2032 38.4666C98.2032 38.4363 98.2032 38.4023 98.2032 38.372C99.3463 40.0567 101.562 40.9085 103.472 41.1545V41.1583Z" fill="#83CDCE"/>
<path d="M73.9013 18.0085C73.7151 14.9876 75.4504 11.9892 78.366 11.0958C79.7103 10.6832 81.2035 10.7513 82.4435 11.4479C83.4453 12.0119 84.1788 12.9318 84.6406 13.9843C84.6406 13.9919 84.6406 13.9957 84.6368 14.0033C83.9889 13.4505 82.7489 13.5641 82.0637 13.8215C80.1385 14.5484 78.7235 16.5018 78.2991 18.5007C77.975 20.0338 78.2134 21.6656 78.9506 23.0285C78.623 22.7709 78.2767 22.54 77.9117 22.3394C77.2117 21.9532 76.4484 21.6807 75.6663 21.5445C75.294 21.2983 74.9626 20.9917 74.7019 20.6056C74.188 19.8483 73.9572 18.9208 73.9013 18.0123V18.0085Z" fill="#045282"/>
<path d="M42.913 28.1506C42.4475 28.5405 41.9784 28.8889 41.3825 29.116C40.582 29.4226 39.7404 29.5589 38.9137 29.2825C37.2083 28.7146 36.9439 26.6931 37.4987 25.175C38.0051 23.7932 39.1483 22.6688 40.5075 22.1578C41.9634 21.6089 43.505 21.889 44.7376 22.6916C43.1737 22.3963 41.4496 23.2406 40.8947 24.7965C40.6229 25.5611 40.6565 26.5 41.1144 27.1852C41.524 27.7985 42.2092 28.1203 42.9167 28.1469L42.913 28.1506Z" fill="#83CDCE"/>
<path d="M60.6419 37.1984C62.2951 38.2546 64.1757 39.008 66.0375 39.4698C68.6665 40.121 71.4928 40.2081 74.1144 39.4698C75.7416 39.0155 77.2497 38.2358 78.527 37.1605C78.959 37.1114 79.3872 37.0432 79.8265 37.0356C80.4298 37.0281 81.033 37.0924 81.6214 37.2287C82.2097 37.3612 82.7869 37.5543 83.3343 37.8117C83.8258 38.0464 84.2541 38.3909 84.7344 38.6408C84.7642 39.6326 84.9988 40.6131 85.442 41.4877C84.5259 40.8744 83.4497 40.4769 82.3885 40.2649C78.3743 39.4547 74.0808 40.2346 70.3459 41.8057C68.4059 42.6233 66.5216 43.6039 64.5109 44.2474C63.483 44.5768 62.4255 44.8153 61.3494 44.8947C60.5562 44.9554 59.7965 44.891 59.0332 44.766C60.4817 43.4146 61.3121 41.4498 61.152 39.4093C61.0924 38.6483 60.9137 37.9063 60.6419 37.1984Z" fill="#83CDCE"/>
<path d="M25.8872 25.5157C27.0006 25.1598 28.1885 25.2999 29.2274 25.811C28.6764 25.7277 28.1104 25.7693 27.5742 25.9662C26.6171 26.3221 25.8128 27.1435 25.5707 28.1696C25.325 29.2144 25.7309 30.2706 26.5984 30.8763C27.4102 31.4441 28.4641 31.2549 29.0338 30.4485C29.4546 29.8503 29.6259 28.991 29.1157 28.4005C29.045 28.3172 28.9332 28.4231 28.9742 28.5102C29.3317 29.2447 28.8476 30.3614 27.9427 30.2441C27.131 30.138 26.4608 29.415 26.5984 28.5595C26.7326 27.7265 27.4475 27.0906 28.237 26.924C28.9854 26.765 29.7786 27.0262 30.3929 27.4616C31.6739 28.374 31.9197 30.0321 31.3611 31.4479C30.7578 32.9698 29.3876 33.9768 27.8199 34.2455C26.4608 34.4803 25.0271 34.151 23.8653 33.4165C23.4036 32.9206 23.0311 32.3414 22.7929 31.6902C21.8582 29.1386 23.3663 26.3221 25.8872 25.5157Z" fill="#83CDCE"/>
<path d="M47.6125 26.9353C48.1971 26.1592 49.3702 26.3371 49.9845 26.9579C50.8112 27.7946 50.8596 29.0174 50.5469 30.1039C50.2601 31.0882 49.776 32.0195 49.1504 32.841C49.0871 32.8675 49.0201 32.894 48.9568 32.9204C47.8768 33.4013 46.9124 34.0562 46.0672 34.8361C42.578 35.8772 38.8989 35.3207 35.3577 34.8929C33.641 34.6846 31.8611 34.4991 30.1035 34.5484C30.5652 34.2682 30.9934 33.9237 31.3584 33.5036C31.6227 33.1969 31.8573 32.8599 32.0547 32.5003C32.6877 32.0725 33.2314 31.5274 33.6857 30.8838C34.9183 29.1385 35.2832 26.8634 34.5161 24.8455C34.1474 23.8726 33.4995 22.9224 32.6841 22.188C33.1197 22.3507 33.5479 22.5325 33.9463 22.7634C34.7619 23.2366 35.5066 23.7477 36.1657 24.4329C36.2067 24.4745 36.2625 24.414 36.229 24.3686C35.9087 23.9483 35.5662 23.5356 35.2087 23.1495C34.8624 22.7785 34.4751 22.4189 34.0693 22.1123C33.6298 21.7791 33.2314 21.4195 32.7361 21.1658C32.1665 20.8743 31.5706 20.6623 30.9562 20.5071C30.9562 20.4466 30.9562 20.3822 30.9488 20.3216C31.1797 19.6553 31.5482 19.1025 32.0956 18.6181C32.7548 18.0351 33.5517 17.6073 34.3671 17.2968C37.2158 16.2102 40.5597 16.57 43.0621 18.353C45.0096 19.7424 46.365 21.8927 46.8864 24.2399C46.5475 23.6757 46.0448 23.2025 45.4527 22.9224C45.0543 22.5552 44.5963 22.2523 44.101 22.0251C42.6413 21.3589 40.9955 21.4686 39.6177 22.2788C38.2621 23.0776 37.2307 24.4821 37.0185 26.076C36.9068 26.905 37.0185 27.8098 37.495 28.5101C37.9419 29.165 38.6569 29.5437 39.424 29.6496C40.7757 29.8351 42.3396 29.1992 43.2483 28.1353C43.3004 28.1316 43.3525 28.1277 43.4046 28.1202C44.2612 27.9839 45.0207 27.3517 45.2032 26.4659C45.367 25.6519 44.9538 24.7964 44.1569 24.5276C43.4382 24.2853 42.578 24.7547 42.4216 25.5232C42.2763 26.2387 42.9169 27.1056 43.6765 26.886C43.7845 26.8557 43.7993 26.6702 43.6765 26.6476C43.3227 26.5832 42.9876 26.3749 42.861 26.0192C42.7306 25.6519 42.9094 25.2695 43.2111 25.0538C43.8887 24.573 44.775 25.1711 44.8383 25.9471C44.9649 27.541 42.7418 28.0672 41.796 27.0412C40.9508 26.1214 41.4646 24.626 42.336 23.9408C43.2371 23.2328 44.5404 23.1079 45.4862 23.7856C45.9406 24.1111 46.298 24.607 46.4916 25.1332C46.5959 25.4134 46.6629 25.7125 46.6741 26.0115C46.6853 26.2992 46.6517 26.5604 46.7151 26.8444C46.73 26.9163 46.7821 26.9693 46.8454 27.0035C47.0464 27.1813 47.4039 27.2116 47.6125 26.9314V26.9353Z" fill="white"/>
<path d="M53.4877 28.268C54.3963 28.3665 55.2974 28.5671 56.1725 28.8283C57.8817 29.3394 59.5053 30.0965 61.1214 30.8613C63.8882 32.1673 66.7405 33.5377 69.835 33.7157C72.3634 33.8633 75.1226 33.0834 76.8057 31.058C78.3138 29.2486 78.7384 26.3638 77.3382 24.3612C76.4333 23.0702 74.8657 22.3622 73.3092 22.3547C74.2065 22.2032 75.1673 22.2903 76.0536 22.5591C77.9824 23.1497 79.5874 24.664 80.4625 26.4887C81.3636 28.3588 81.3487 30.5054 80.6374 32.4361C79.9225 34.3819 78.5001 36.0818 76.7686 37.1645C74.8248 38.3834 72.5235 38.9022 70.2558 38.9134C67.9619 38.9248 65.668 38.4137 63.5419 37.5581C62.4805 37.1304 61.4863 36.5776 60.5069 35.9871C60.2649 35.8432 60.0192 35.6955 59.7771 35.5518C59.0919 34.5447 58.1871 33.6929 57.122 33.1062C55.0927 31.9894 52.6834 31.8077 50.4678 32.3868C51.3391 31.1755 51.8865 29.6687 51.6631 28.2112C52.27 28.1961 52.877 28.1999 53.4877 28.2642V28.268Z" fill="#045282"/>
<path d="M57.789 45.69C58.1428 45.4892 58.4742 45.2508 58.7796 44.9895C59.6174 45.1864 60.5149 45.2015 61.3527 45.1372C62.4475 45.0539 63.531 44.8116 64.5774 44.4747C66.5436 43.8425 68.3905 42.8885 70.2896 42.0822C72.2184 41.2644 74.2145 40.6625 76.2923 40.3937C79.3271 39.9962 83.0843 40.0227 85.6724 41.8928C85.6835 41.9118 85.6909 41.9269 85.7021 41.9458C86.0558 42.5061 86.4878 42.9944 86.9645 43.4375C86.8714 43.4109 86.7746 43.3882 86.6815 43.3654C85.4005 42.8052 84.0488 42.4418 82.6449 42.3092C80.6714 42.12 78.6755 42.3699 76.754 42.8317C73.034 43.7289 69.5896 45.4931 66.2716 47.3821C62.924 49.2864 59.461 51.3988 55.5213 51.5426C53.7339 51.6108 51.9279 51.2361 50.4085 50.2479C49.0942 49.3923 47.9956 48.109 47.5339 46.5758C47.0238 44.8798 47.3589 42.9794 48.394 41.5521C48.9377 40.8026 49.649 40.2384 50.4458 39.8599C50.1703 40.2915 49.9766 40.7798 49.8947 41.2909C49.6862 42.5666 50.0586 43.8046 50.8926 44.7737C52.6243 46.7877 55.592 46.9506 57.7928 45.6937L57.789 45.69Z" fill="white"/>
<path d="M96.4527 27.95C97.1377 27.0111 97.6442 25.936 97.9346 24.7927C98.8469 21.2455 97.5213 17.5278 94.7286 15.2602C93.3508 14.1397 91.6862 13.3749 89.9323 13.1175C88.6774 12.932 87.1619 12.9244 85.9629 13.5036C86.8863 12.0083 88.3572 10.9066 90.0218 10.4145C91.7272 9.91099 93.5555 10.1306 95.1492 10.9104C96.7878 11.713 98.1581 13.0191 99.0406 14.6355C100.02 16.4337 100.374 18.5273 100.21 20.564C99.9902 23.3087 98.6757 26.3032 96.4451 27.95H96.4527Z" fill="white"/>
<path d="M82.0713 10.9635C79.137 9.71424 75.7223 11.4973 74.3856 14.2647C73.678 15.7222 73.4398 17.4485 73.7785 19.046C73.961 19.9168 74.4078 20.8443 75.0782 21.4689C73.6445 21.344 72.1922 21.6847 71.0193 22.6425C69.124 24.1871 68.6175 27.2345 69.7346 29.3925C70.3193 30.5169 71.4065 31.2399 72.6689 31.2512C73.8903 31.2589 75.0185 30.5963 75.6777 29.559C76.3368 28.5218 76.5305 27.1854 76.0053 26.0535C75.5399 25.054 74.3297 24.3233 73.2573 24.8004C72.3971 25.1827 71.8609 26.3827 72.4343 27.2233C73.004 28.0561 74.2478 28.128 74.8324 27.2913C75.1154 26.8863 74.4601 26.5039 74.1807 26.9052C73.987 27.1854 73.5366 27.2384 73.2349 27.1437C72.7769 26.9999 72.5832 26.5493 72.6689 26.0875C72.7657 25.5727 73.1716 25.16 73.6743 25.0578C74.2516 24.9404 74.8622 25.2017 75.2532 25.6332C75.6665 26.0875 75.7968 26.6932 75.7968 27.2952C75.7968 28.4043 75.2234 29.5287 74.3111 30.1459C73.3988 30.7629 72.1476 30.8197 71.2204 30.2025C70.3007 29.5894 69.8649 28.4082 69.7755 27.333C69.6862 26.2579 69.9097 25.1563 70.4681 24.2288C70.941 23.4489 71.6076 22.9303 72.3673 22.6236C73.3094 22.4911 74.2701 22.5743 75.1713 22.9415C76.4373 23.4601 77.4055 24.5165 77.7667 25.8604C78.4407 28.3741 77.13 30.9294 75.0185 32.2393C72.6875 33.6855 69.8426 33.7006 67.2657 33.0381C64.3725 32.2961 61.7583 30.7932 59.0288 29.6083C57.7107 29.0366 56.3589 28.533 54.9551 28.2302C53.8752 27.9955 52.7283 27.8517 51.6187 27.9576C51.5851 27.81 51.5478 27.6623 51.4957 27.5185C51.1568 26.5228 50.3861 25.6256 49.3285 25.4326C48.6508 25.3076 47.962 25.444 47.4108 25.8187C47.381 25.4552 47.273 25.0805 47.139 24.7511C46.9565 23.3921 46.4836 22.086 45.7574 20.9199C44.0632 18.2018 41.1736 16.5135 38.0046 16.4188C36.3997 16.3695 34.7799 16.714 33.3463 17.4522C32.46 17.9103 31.4471 18.6259 30.9258 19.5685C30.9556 18.8794 31.0673 18.1981 31.2572 17.5355C32.0616 14.7228 34.158 12.3226 36.9285 11.4254C38.3249 10.9749 39.8367 10.8727 41.2778 11.1339C41.9816 11.2626 42.6854 11.4595 43.3445 11.7472C43.6945 11.8986 44.0371 12.0727 44.3796 12.2431C44.6031 12.3529 44.8228 12.44 45.0425 12.527C45.3776 13.4318 45.9287 14.2533 46.6884 14.8855C46.6847 17.0926 47.5188 19.3148 48.7774 21.0865C51.2724 24.5959 55.562 26.398 59.7587 26.1897C62.0005 26.0799 64.2049 25.4363 66.1933 24.3764C67.6046 23.623 69.1761 22.4949 69.7979 20.9276C70.0363 20.8254 70.2708 20.7118 70.498 20.5831C72.1588 19.6214 73.3243 17.9179 73.5217 15.972C73.5588 15.601 73.5477 15.23 73.4919 14.8704C73.7563 13.3523 73.611 11.785 72.6391 10.5092C70.2336 7.35194 64.9161 9.36973 64.1155 12.9472C63.7432 14.6167 64.4096 16.4793 66.0257 17.1722C66.6961 17.4599 67.5487 17.5432 68.2303 17.2288C68.4462 17.1305 68.6585 16.9222 68.5169 16.6723C68.409 16.4831 68.152 16.3317 67.9919 16.1916C67.8057 16.0288 67.612 15.8774 67.4147 15.7222C66.7892 14.734 66.938 13.2842 67.9547 12.5346C68.6026 12.0576 69.4739 11.8759 70.2448 12.1068C70.9634 12.3226 71.6114 12.9511 71.9615 13.6098C72.7508 15.1013 72.5237 16.8124 71.5703 18.1716C70.7511 19.3414 69.3883 20.0985 68.0068 20.3029C65.1023 20.7344 62.5106 18.4744 61.9408 15.6503C61.52 13.5756 62.1791 11.539 63.434 9.9603C63.4936 9.91487 63.5457 9.85431 63.583 9.78616C64.283 8.9533 65.1507 8.25672 66.1114 7.76458C67.586 7.015 69.3175 6.66294 70.9597 6.83329C72.5088 6.9923 74.0727 7.91223 74.3409 9.58173C74.4414 10.214 75.4245 10.0436 75.4133 9.43409C75.391 8.09773 76.0724 6.85222 77.1039 6.04586C79.1036 4.48614 81.8628 5.09943 83.5124 6.8825C84.38 7.82137 84.8716 9.07444 85.0019 10.3502C85.1137 11.467 84.9498 12.5535 84.7115 13.6363C84.1827 12.4513 83.2666 11.4632 82.0677 10.9522L82.0713 10.9635Z" fill="#08B4BE"/>
<path d="M61.5651 17.8232C62.3806 19.3868 63.777 20.6474 65.4415 21.1925C66.2124 21.4424 67.0278 21.5143 67.8321 21.4385C67.0092 21.7831 66.1527 22.0443 65.2665 22.1844C63.3861 22.4759 61.3566 22.1693 59.7442 21.1054C58.035 19.9773 57.0742 18.0466 56.7465 16.0439C56.4487 14.2154 56.687 12.3112 57.3572 10.5925C57.6925 9.72556 58.143 8.90406 58.6903 8.15449C59.2303 7.41249 59.8931 6.83706 60.53 6.1897C61.4013 7.10584 62.0306 8.16963 62.5705 9.30913C60.7273 11.7055 60.1054 15.0105 61.5725 17.8232H61.5651Z" fill="#83CDCE"/>
<path d="M104.79 28.1392C102.906 28.5254 101.494 30.3691 101.554 32.3074C101.617 34.3327 102.995 36.184 104.801 36.9714C105.088 37.0962 105.382 37.1947 105.68 37.2703C104.41 37.4483 103.14 37.437 101.885 36.9638C100.943 36.6079 100.098 35.9908 99.5468 35.1277C99.0032 34.2721 98.75 33.2461 98.75 32.2316C98.75 30.2138 99.7665 28.162 101.506 27.1323C103.23 26.1139 105.494 26.1934 106.979 27.613C107.437 28.0522 107.825 28.6617 108.052 29.3166C107.903 29.1197 107.732 28.9419 107.542 28.7866C106.756 28.1468 105.769 27.9348 104.79 28.1355V28.1392Z" fill="#045282"/>
<path d="M58.2657 8.26793C57.655 9.16893 57.1783 10.1684 56.8544 11.2132C55.7037 14.9194 56.5229 19.7689 60.202 21.6807C62.924 23.0967 65.9069 22.6272 68.5283 21.3325C68.8858 21.2606 69.2395 21.1545 69.5822 21.022C69.1986 21.7035 68.7145 22.3016 68.1113 22.8202C67.2585 23.551 66.2792 24.1112 65.2664 24.573C61.3675 26.3524 56.7687 26.4773 52.9556 24.4027C51.1794 23.4374 49.6564 22.0328 48.5989 20.2877C47.6381 18.7052 47.1317 16.9524 46.9939 15.1201C48.4425 16.1725 50.2671 16.4111 51.9205 15.6425C53.6073 14.855 54.6127 13.0796 54.3484 11.2057C54.2254 10.3349 53.8456 9.53236 53.1977 8.938C52.5051 8.302 51.5778 7.94614 50.6432 8.09756C49.7495 8.24142 49.0159 8.94178 48.7106 9.78978C48.409 10.6302 48.5132 11.7394 49.2208 12.3414C49.7942 12.8259 50.7177 13 51.332 12.4928C51.8608 12.0574 52.0508 11.2511 51.5816 10.7097C51.5257 10.6454 51.4438 10.7286 51.4736 10.793C51.887 11.747 51.0044 12.7275 50.04 12.3944C49.0643 12.0612 48.826 10.793 49.1687 9.91851C49.5521 8.94179 50.498 8.44207 51.481 8.83957C52.2333 9.14243 52.7062 9.75193 53.0264 10.4864C53.5775 11.7622 53.2908 13.1704 52.2704 14.1018C51.2129 15.067 49.649 15.317 48.3493 14.7377C46.9232 14.1055 45.9587 12.7199 45.7019 11.1829C45.4188 9.50586 45.9923 7.72656 47.0386 6.42807C49.1835 3.76669 52.9706 2.79754 56.1878 3.6304C57.7407 4.0317 59.1594 4.84184 60.3138 5.96999C60.3324 5.98892 60.351 6.01164 60.3733 6.03056C59.5281 6.56814 58.828 7.4502 58.2731 8.2717L58.2657 8.26793Z" fill="#045282"/>
<path d="M124.321 36.57C119.51 36.7101 115.079 38.8604 110.499 40.0984C108.164 40.7306 105.673 41.1962 103.26 40.8329C102.206 40.6738 101.178 40.3444 100.255 39.8031C99.4576 39.3375 98.806 38.7242 98.2028 38.039C98.1134 36.0514 97.0782 34.2002 95.5291 32.9926C93.9689 31.7735 91.9655 31.3192 90.0478 31.7433C89.0275 31.5313 88.0445 31.2094 87.1135 30.6871C85.8623 29.983 84.7824 28.9948 84.0004 27.7759C82.6561 25.6747 82.2689 23.0134 83.2073 20.6662C84.1457 18.3229 86.2459 16.6458 88.7593 16.5057C91.191 16.3695 93.4587 17.7625 94.3412 20.0946C94.7546 21.1887 94.8327 22.419 94.4492 23.5358C94.3189 23.9182 94.129 24.2626 93.8981 24.558C94.5423 23.3276 94.3338 21.6316 93.1609 20.6814C92.2894 19.9773 91.1053 19.8144 90.044 20.0946C89.0573 20.3558 88.2306 21.0069 87.6459 21.8436C86.4618 23.532 86.4506 25.8678 87.5752 27.5865C88.7892 29.4377 90.9527 30.4637 93.1273 30.3084C96.1696 30.0927 98.4559 28.1317 99.8375 25.5801C100.59 25.0728 101.401 24.6526 102.232 24.2968C103.978 23.5548 105.918 23.4109 107.739 23.9598C109.299 24.4292 110.759 25.4022 111.668 26.7916C112.573 28.1695 112.967 29.9186 112.699 31.5615C112.442 33.1516 111.601 34.5712 110.249 35.4381C109.009 36.2332 107.453 36.57 106.011 36.2218C104.496 35.8545 103.2 34.6848 102.776 33.144C102.358 31.6448 103.01 30.1117 104.403 29.434C105.017 29.1349 105.754 29.0592 106.388 29.3507C107.017 29.6384 107.572 30.2895 107.553 31.0239C107.534 31.7281 106.887 32.4096 106.19 32.4474C105.375 32.489 104.902 31.554 105.133 30.8384C105.166 30.7362 105.021 30.6833 104.969 30.7665C104.764 31.0846 104.716 31.4253 104.805 31.7924C105.006 32.6177 105.699 33.3068 106.551 33.3485C107.572 33.3976 108.413 32.4133 108.596 31.4631C108.685 30.9975 108.629 30.5281 108.473 30.0964C108.473 30.0738 108.473 30.051 108.473 30.0284C108.365 28.9419 107.758 27.9311 106.942 27.2383C105.311 25.8565 102.939 25.8641 101.182 27.0111C99.3943 28.1734 98.3927 30.3842 98.4858 32.5118C98.5342 33.5908 98.8581 34.6696 99.4986 35.5403C100.117 36.377 101.003 36.9563 101.967 37.2931C103.464 37.8156 105.051 37.7512 106.592 37.4332C106.994 37.4711 107.4 37.4711 107.806 37.4332C108.324 37.5128 108.849 37.5543 109.396 37.5543C110.431 37.5543 111.47 37.4938 112.491 37.3159C116.535 36.6118 120.508 35.1769 124.667 35.5366C126.79 35.7183 128.968 36.4906 130.596 37.8989C128.696 36.8578 126.47 36.5132 124.332 36.5739L124.321 36.57Z" fill="white"/>
<path d="M70.9712 11.6751C69.5077 11.1565 67.6459 11.7319 66.9644 13.2197C66.4059 14.4463 66.9756 16.0892 68.212 16.6155C68.3162 16.7215 68.3869 16.8389 68.331 16.9373C68.2417 17.0887 67.847 17.1493 67.6906 17.1796C67.4783 17.2174 67.2586 17.225 67.0427 17.2061C66.1973 17.1379 65.3819 16.676 64.8828 15.9794C63.9408 14.662 64.1158 12.8449 64.9871 11.5464C65.892 10.1987 67.4895 9.27873 69.0907 9.18031C70.8297 9.0743 72.3638 10.0359 73.0416 11.6637C73.4103 12.5534 73.4996 13.4999 73.4139 14.4425C73.0937 13.1932 72.2336 12.1218 70.975 11.6751H70.9712Z" fill="#83CDCE"/>
<path d="M32.0583 21.9723C32.3748 22.207 32.6728 22.472 32.952 22.7786C34.3 24.2777 34.9405 26.3447 34.5122 28.3475C34.2032 29.7936 33.3988 31.0845 32.2929 32.0158C32.8664 30.6984 32.952 29.1689 32.2259 27.8855C31.7604 27.0641 30.9785 26.4015 30.0885 26.0457C29.8353 25.8564 29.5709 25.6898 29.3027 25.5536C26.7594 24.2665 23.68 25.6179 22.5962 28.2339C21.9968 29.6837 22.2128 31.3911 23.006 32.7275C22.0861 31.8075 21.5201 30.5318 21.3526 29.2408C21.1329 27.5827 21.5351 25.8792 22.4809 24.5086C23.423 23.1458 24.8753 22.1653 26.4318 21.6807C28.0739 21.1697 29.8129 21.2303 31.4402 21.764C31.6449 21.8322 31.8536 21.8965 32.0621 21.9684L32.0583 21.9723Z" fill="#5A91A5"/>
<path d="M52.6649 41.9155C52.6649 41.9306 52.6649 41.9419 52.6611 41.957C52.6611 41.9495 52.6611 41.9306 52.6611 41.9192L52.6649 41.9155Z" fill="#83CDCE"/>
<path d="M84.2689 32.6784C85.1029 32.8752 85.8849 33.2236 86.6147 33.6702C86.0376 34.2646 85.5684 34.965 85.2481 35.7486C84.9018 36.5967 84.7268 37.5279 84.7344 38.4631C84.3544 38.0807 83.8071 37.8119 83.3416 37.5885C82.8128 37.3348 82.2542 37.1304 81.6846 37.0017C81.0925 36.8691 80.4892 36.8011 79.8822 36.8011C79.5545 36.8011 79.2008 36.82 78.8545 36.8691C79.4205 36.3543 79.9381 35.7827 80.3925 35.143C80.9584 34.3442 81.4052 33.4582 81.718 32.527C82.5783 32.4853 83.4123 32.4739 84.2689 32.6746V32.6784Z" fill="#08B4BE"/>
<path d="M47.1245 35.3889C49.0757 33.7004 51.7383 32.8373 54.2853 33.284C56.7095 33.7118 58.806 35.3245 59.6698 37.7019C60.4964 39.9772 60.0049 42.4341 58.1878 44.0506C56.5084 45.5459 53.8534 45.9662 52.0697 44.3989C51.2206 43.6493 50.7329 42.5477 50.9749 41.4005C51.1984 40.3557 51.9617 39.4775 53.0639 39.4661C53.9464 39.4547 54.9779 40.0075 55.0337 40.9993C55.086 41.9533 54.2853 42.8884 53.3283 42.7862C53.2724 42.7786 53.2241 42.7862 53.1756 42.7937C53.131 42.7672 53.0863 42.7446 53.0416 42.718C53.0304 42.7104 52.9932 42.6839 52.9708 42.6688C52.9521 42.6499 52.9075 42.612 52.8926 42.5968C52.8592 42.5666 52.8331 42.5288 52.8033 42.4984C52.7921 42.4795 52.7772 42.4569 52.7623 42.4379C52.74 42.4038 52.725 42.3659 52.7027 42.328C52.6953 42.3091 52.6878 42.2903 52.6803 42.2675C52.6693 42.2372 52.6617 42.2032 52.6543 42.1691C52.6543 42.1691 52.6431 42.1199 52.6431 42.082C52.6431 42.0403 52.6431 41.9987 52.6431 41.957C52.6431 41.957 52.6431 41.9533 52.6431 41.9495C52.6431 41.9609 52.6431 41.957 52.6469 41.9079C52.6693 41.8132 52.6915 41.7224 52.7176 41.6316C52.725 41.6088 52.74 41.5709 52.7436 41.5672C52.7586 41.5331 52.7772 41.499 52.7959 41.465C52.8181 41.4233 52.8405 41.3817 52.8666 41.3439C52.8666 41.3439 52.8814 41.3211 52.8852 41.3135C52.8926 41.3022 52.9038 41.2908 52.9112 41.2795C52.9708 41.2038 52.9633 41.1885 53.0342 41.1545C53.198 41.0751 53.3767 41.0144 53.5592 41.0485C53.764 41.0863 53.98 41.2416 54.0395 41.4498C54.0507 41.4838 54.0991 41.4687 54.0917 41.4347C54.0359 41.1242 53.8831 40.9008 53.6187 40.7343C53.4921 40.6548 53.3469 40.5942 53.2055 40.564C53.0342 40.5261 52.8889 40.564 52.7214 40.6094C52.4309 40.6851 52.1776 40.81 51.9765 41.0485C51.742 41.3286 51.6154 41.6505 51.5856 42.0177C51.5297 42.718 51.9729 43.3767 52.5612 43.7061C53.1719 44.0506 53.9465 44.0961 54.5683 43.7591C54.7545 43.6569 54.9071 43.5092 55.0337 43.3388C55.3987 43.036 55.6966 42.6385 55.8828 42.1956C56.3482 41.0977 56.0913 39.8522 55.1715 39.0875C54.3114 38.372 53.049 38.1411 52.0027 38.5386C51.5112 38.7241 51.094 39.0383 50.7552 39.4245C49.7312 39.8295 48.8151 40.5298 48.1672 41.4195C47.0612 42.9376 46.7261 44.9857 47.3108 46.7801C48.3683 50.0169 51.6973 51.7395 54.8885 51.7924C58.8991 51.8568 62.4849 49.7859 65.8662 47.8363C69.3627 45.8224 72.971 43.9067 76.9107 42.9678C78.78 42.5212 80.7164 42.2865 82.6342 42.4681C83.7252 42.5703 84.7827 42.8202 85.8104 43.1761C80.7238 42.2751 75.7936 44.5503 71.6155 47.488C66.8827 50.812 62.4738 55.0822 56.6723 56.3353C54.0619 56.8993 51.2951 56.7214 48.9083 55.4381C46.7708 54.2872 45.0541 52.4247 44.019 50.2062C41.7327 45.3074 43.047 38.8982 47.1134 35.3813L47.1245 35.3889Z" fill="#045282"/>
<path d="M24.998 35.7713C24.998 35.7713 25.0054 35.7713 25.0092 35.7713C25.6051 35.6804 26.1933 35.5668 26.7742 35.4192C27.7536 35.4457 28.7366 35.2488 29.6193 34.8248C30.1108 34.7983 30.6023 34.787 31.0976 34.7983C34.9218 34.8627 38.6902 35.8584 42.5294 35.669C43.5943 35.6161 44.6631 35.4722 45.6983 35.1997C44.0561 36.8615 42.9129 39.0232 42.3208 41.3363C41.5501 41.8398 40.5781 42.0632 39.6844 42.173C37.9305 42.3925 36.1469 42.2903 34.408 41.9912C28.1706 40.916 22.6558 37.3764 16.4298 36.2596C13.6444 35.7599 10.7399 35.7637 8.05505 36.748C7.94333 36.7896 7.83534 36.8313 7.72363 36.8767C10.6765 35.4154 14.0912 35.3813 17.3383 35.6009C19.3044 35.7334 21.3004 36.0551 23.2739 35.9529C23.8511 35.9227 24.4246 35.8621 24.9906 35.7751C24.9906 35.7751 24.9944 35.7751 24.998 35.7751V35.7713Z" fill="#08B4BE"/>
<path d="M12.2853 38.2774C15.0558 38.2622 17.8225 38.762 20.3993 39.7993C23.1288 40.8934 25.6052 42.5326 28.1707 43.9559C30.6509 45.3265 33.317 46.5152 36.1582 46.7498C38.0201 46.905 40.5448 46.6893 41.8407 45.1334C41.8407 45.8716 41.9002 46.6061 42.0157 47.3216C42.0678 47.6358 42.1311 47.9461 42.2018 48.2528C40.69 49.3998 38.8393 49.9602 36.9812 50.1949C34.8736 50.4599 32.7213 50.3577 30.6545 49.873C29.3326 49.5627 28.0107 49.1273 26.8154 48.4686C25.9217 47.9765 25.0578 47.4313 24.1938 46.8899C21.9223 45.4552 19.6844 43.9749 17.4092 42.5477C15.35 41.2568 13.2535 39.9052 10.8815 39.2958C9.61541 38.9702 8.25625 38.8339 6.94922 38.9702C8.69193 38.5273 10.483 38.285 12.2816 38.2774H12.2853Z" fill="#08B4BE"/>
<path d="M27.6715 40.231C30.5723 41.3212 33.5699 42.2601 36.6755 42.4418C38.0645 42.5213 39.5205 42.4872 40.8759 42.1314C41.36 42.0027 41.8404 41.8134 42.2648 41.5446C42.0005 42.6462 41.859 43.782 41.8478 44.9064C41.1402 45.7581 40.0567 46.2124 38.9805 46.4244C37.3756 46.7424 35.6999 46.5947 34.1211 46.2161C28.4982 44.8685 24.1266 40.6132 18.6266 38.9286C14.0054 37.5128 8.89647 37.6983 4.41309 39.5305C4.86366 38.94 5.39244 38.4138 5.97706 37.9557C7.09418 37.2705 8.33045 36.7745 9.62259 36.4831C15.8635 35.071 21.9705 38.0807 27.6753 40.2271L27.6715 40.231Z" fill="#83CDCE"/>
<path d="M132.61 40.4277C130.45 38.7317 127.613 38.9134 125.178 39.8598C122.463 40.9123 120.337 43.0247 118.218 44.9706C116.025 46.9884 113.757 48.8245 110.972 49.9223C108.276 50.9823 105.3 51.3723 102.429 51.0316C99.5546 50.6908 96.9555 49.5702 94.4196 48.196C91.9246 46.8445 89.4745 45.2962 86.7226 44.5238C80.4555 42.7635 74.6875 46.5114 69.8653 50.1532C65.0169 53.814 59.7181 58.0389 53.3207 57.7551C48.316 57.5317 44.0859 54.0147 42.5144 49.3204C41.3265 50.2403 39.8706 50.7665 38.4145 51.0693C36.5788 51.4517 34.6797 51.5426 32.814 51.3495C30.8778 51.1489 28.9898 50.6606 27.1987 49.8844C26.4316 49.5513 25.7129 49.1198 25.0017 48.6881C22.7973 47.3481 20.6486 45.917 18.4777 44.5277C17.3755 43.8235 16.2733 43.127 15.1524 42.4568C14.2698 41.9307 13.3799 41.3968 12.4341 40.9881C9.51093 39.7197 5.5377 39.3715 3.13589 41.8852C2.76724 42.2676 2.04856 41.8777 2.2273 41.3477C3.32581 38.039 6.38299 35.8508 9.60402 34.98C13.73 33.8594 18.0196 34.6393 22.2051 34.8551C22.9797 34.8967 23.7467 34.9346 24.5176 34.9649C23.2404 34.4766 22.1269 33.621 21.3598 32.4322C20.2725 30.7438 19.9746 28.5974 20.388 26.6438C20.8162 24.6147 22.0935 22.8884 23.7803 21.7489C25.497 20.5868 27.6381 20.0454 29.6899 20.2801C29.7644 20.2877 29.8351 20.3028 29.9096 20.3142C29.9096 20.2535 29.9096 20.1968 29.9096 20.14C29.9022 19.7652 29.9208 19.3867 29.958 19.0157C30.0362 18.2887 30.174 17.5732 30.3973 16.8768C31.3172 14.0033 33.4695 11.607 36.2734 10.5621C37.8597 9.96776 39.5876 9.84283 41.252 10.1003C42.101 10.2328 42.9202 10.4864 43.706 10.8385C44.0709 11.0013 44.4247 11.1943 44.7524 11.429C44.6443 10.8044 44.6295 10.1608 44.7078 9.52483C45.2402 5.18638 49.4629 2.41523 53.5143 2.25245C57.4987 2.09344 61.4794 4.42923 63.1588 8.1506C63.2072 8.26039 63.2556 8.37018 63.3003 8.47996C63.5945 8.1809 63.911 7.90075 64.2462 7.6471C65.8139 6.46974 67.7539 5.82996 69.6903 5.72017C71.5186 5.61796 73.5034 6.1101 74.654 7.62061C75.436 5.54224 77.5324 4.02416 79.7667 4.04688C82.8351 4.07717 85.3932 6.52653 85.9704 9.51726C86.0932 10.1608 86.1603 10.846 86.138 11.5275C86.8157 10.8309 87.62 10.2441 88.4951 9.83147C90.4315 8.91533 92.6136 8.79796 94.6393 9.5059C96.6725 10.2176 98.43 11.6297 99.6179 13.4468C100.917 15.4382 101.469 17.9102 101.335 20.2838C101.264 21.5408 100.996 22.8279 100.541 24.0393C100.869 23.8047 101.215 23.5925 101.58 23.4184C103.479 22.5288 105.591 22.2828 107.631 22.79C109.612 23.2822 111.433 24.4709 112.584 26.1972C113.731 27.9197 114.122 30.1419 113.697 32.171C113.306 34.0299 112.152 35.635 110.525 36.5625C111.057 36.4792 111.59 36.377 112.122 36.2823C114.215 35.9075 116.267 35.3359 118.356 34.927C122.091 34.1964 126.06 33.9731 129.527 35.8394C131.14 36.7063 132.528 38.0124 133.358 39.6782C133.579 40.1172 133.083 40.8063 132.613 40.4353L132.61 40.4277ZM95.4994 42.9036C96.2181 43.6267 97.0038 44.2475 97.9311 44.7018C99.0519 45.2545 100.281 45.5688 101.521 45.6861C104.317 45.9473 107.069 45.141 109.594 43.9787C114.673 41.6468 119.294 37.6982 125.025 37.1681C126.525 37.0282 128.059 37.1417 129.49 37.577C127.934 37.013 126.288 36.7594 124.619 36.7859C122.18 36.8238 119.789 37.4181 117.47 38.1449C115.146 38.8718 112.863 39.7462 110.514 40.386C108.242 41.007 105.833 41.465 103.476 41.1622C101.565 40.916 99.3536 40.0643 98.2066 38.3797C98.2066 38.41 98.2066 38.4402 98.2066 38.4743C98.1582 40.3785 97.149 42.1388 95.4994 42.9074V42.9036ZM101.774 49.8201C104.414 50.263 107.166 50.0245 109.709 49.1955C112.331 48.3399 114.539 46.7953 116.587 44.9592C118.613 43.1459 120.542 41.128 122.895 39.7539C125.014 38.5159 127.55 37.7739 130 38.1335C130.279 38.1752 130.551 38.232 130.823 38.3078C129.121 37.5391 127.2 37.2856 125.345 37.4218C122.482 37.6338 119.786 38.7999 117.268 40.14C112.431 42.7181 107.471 46.4357 101.722 45.9928C99.3833 45.811 96.7767 44.9138 95.2425 43.0058C94.9446 43.1231 94.6281 43.2102 94.2893 43.2595C92.0885 43.5737 89.8803 42.0821 89.6197 39.7804C89.5005 38.7166 89.8244 37.6224 90.5581 36.8464C91.2544 36.1119 92.2747 35.6615 93.2838 35.7977C94.2111 35.9227 95.0043 36.5208 95.317 37.4294C95.6 38.2585 95.3878 39.1936 94.6616 39.6971C93.9838 40.1665 92.9785 40.1968 92.4199 39.523C92.1444 39.1897 92.0215 38.7166 92.2077 38.3078C92.3715 37.948 92.7476 37.6717 93.1535 37.7625C93.5184 37.8458 93.7828 38.1752 93.7641 38.5538C93.7531 38.762 93.444 38.762 93.4477 38.5538C93.4514 38.2585 93.1721 38.0351 92.8891 38.1298C92.6024 38.2282 92.4758 38.5689 92.5317 38.849C92.6173 39.2919 93.0418 39.6024 93.4626 39.6743C94.293 39.8183 95.075 39.1481 95.1495 38.3153C95.2276 37.3992 94.6021 36.5815 93.7531 36.3353C92.8928 36.0818 91.9024 36.3278 91.2395 36.9372C89.8915 38.1789 90.0331 40.2725 91.3922 41.4499C92.6545 42.544 94.6021 42.4721 95.8532 41.3893C97.1826 40.2422 97.3763 38.2736 96.8624 36.6684C96.4005 35.2148 95.3506 33.958 94.0361 33.2197C91.206 31.6334 87.3296 33.072 86.1119 36.0968C85.4156 37.8269 85.531 39.8295 86.4247 41.4574C86.9386 42.3963 87.7094 43.1875 88.4802 43.9068C88.4989 43.9219 88.5137 43.9409 88.5323 43.9561C93.0567 45.6823 96.9033 49.0023 101.774 49.8164V49.8201ZM92.7364 25.7277C92.5912 25.8035 92.4386 25.8678 92.271 25.9171C92.0364 25.9851 91.8279 25.9246 91.597 25.8678C91.355 25.811 91.1129 25.7656 90.8783 25.6748C90.7964 25.6444 90.815 25.5347 90.8969 25.5233C91.1315 25.4968 91.3773 25.4514 91.5635 25.2924C91.638 25.2319 91.6863 25.1523 91.7608 25.0918C91.8651 25.0122 91.9991 24.9631 92.1109 24.8949C92.4646 24.6754 92.7774 24.3876 92.9822 24.0166C93.3657 23.3162 93.2243 22.3622 92.7142 21.7641C91.5299 20.3785 89.3702 21.2076 88.5137 22.5174C87.5753 23.9484 87.6349 25.7542 88.6068 27.1435C89.6644 28.6579 91.5188 29.3545 93.2988 29.1803C94.3227 29.0781 95.2462 28.7374 96.058 28.2225C97.689 26.0305 98.3071 23.0513 97.6555 20.3861C96.84 17.0509 94.0249 14.4349 90.7852 13.5945C89.832 13.3484 88.8302 13.25 87.8472 13.3219C86.9907 13.3863 86.246 13.64 85.5645 14.0904C85.5422 14.1169 85.5236 14.1472 85.5012 14.1737C85.4193 14.3289 85.3337 14.4803 85.2368 14.628C85.0022 14.9725 84.4548 14.7681 84.5592 14.3364C84.5666 14.3138 84.5702 14.291 84.574 14.2645C84.3059 14.1093 84.0266 13.9882 83.7027 13.9389C83.1962 13.8633 82.6787 13.9238 82.1982 14.0942C81.2934 14.416 80.4965 15.0784 79.8858 15.8204C78.657 17.3197 78.1543 19.3337 78.5713 21.2417C78.7464 22.0442 79.0778 22.8165 79.5171 23.5131C80.8019 24.7132 81.7253 26.3259 82.0605 28.0635C82.3324 29.487 82.2132 30.9407 81.7886 32.3074C82.6228 32.171 83.5203 32.2809 84.3208 32.4777C85.1773 32.6896 85.9853 33.0606 86.7003 33.5831C87.4636 32.826 88.3983 32.2467 89.426 31.9136C87.3705 31.4025 85.4453 30.1608 84.1793 28.4876C82.5743 26.3638 81.9562 23.5131 82.8313 20.9501C83.6803 18.4592 85.7805 16.5738 88.3871 16.2635C90.9454 15.9568 93.4328 17.2855 94.4866 19.7009C95.0414 20.9729 95.1681 22.4606 94.6616 23.7705C94.3339 24.6186 93.6041 25.4476 92.7328 25.7277H92.7364ZM75.6705 21.5445C76.4525 21.6846 77.216 21.9534 77.916 22.3394C78.2771 22.5402 78.6234 22.7711 78.9549 23.0285C78.2176 21.6656 77.9793 20.0303 78.3032 18.5007C78.724 16.5019 80.1428 14.5485 82.068 13.8216C82.7568 13.5604 83.9968 13.4468 84.6411 14.0033C84.6411 13.9957 84.6411 13.992 84.6447 13.9844C84.183 12.932 83.4532 12.012 82.4477 11.448C81.204 10.7514 79.7146 10.6833 78.3703 11.0959C75.4546 11.9893 73.7193 14.9876 73.9056 18.0087C73.9613 18.9173 74.1922 19.8448 74.7061 20.6019C74.9705 20.988 75.2982 21.2985 75.6705 21.5408V21.5445ZM40.8909 24.8002C41.4457 23.2443 43.1698 22.3963 44.7338 22.6954C43.5012 21.8928 41.9596 21.6164 40.5035 22.1616C39.1481 22.6727 38.0013 23.797 37.4948 25.1788C36.94 26.6931 37.2043 28.7185 38.9098 29.2863C39.7402 29.5627 40.5818 29.4264 41.3786 29.1197C41.9744 28.8926 42.4399 28.5443 42.9092 28.1543C42.2016 28.1278 41.5164 27.8061 41.1068 27.1928C40.6488 26.5076 40.6153 25.5687 40.8871 24.8041L40.8909 24.8002ZM46.8451 27.0073C46.7818 26.9733 46.7297 26.9165 46.7147 26.8483C46.6552 26.5644 46.685 26.3032 46.6738 26.0154C46.6626 25.7163 46.5957 25.4174 46.4914 25.1372C46.2977 24.611 45.9402 24.115 45.4859 23.7894C44.5364 23.1156 43.2331 23.2405 42.3357 23.9446C41.4643 24.6299 40.9467 26.1252 41.7958 27.0452C42.7378 28.071 44.9646 27.5412 44.838 25.9511C44.7747 25.1751 43.8884 24.5768 43.2108 25.0576C42.9092 25.2697 42.7303 25.6558 42.8607 26.023C42.9873 26.3789 43.3262 26.5833 43.6763 26.6515C43.7991 26.6742 43.7842 26.8597 43.6763 26.89C42.9166 27.1134 42.2761 26.2426 42.4213 25.5271C42.5777 24.7586 43.4342 24.2891 44.1566 24.5314C44.9535 24.8002 45.3668 25.6558 45.2029 26.4697C45.0242 27.3518 44.2646 27.9878 43.4043 28.1241C43.3522 28.1317 43.3001 28.1355 43.248 28.1392C42.3394 29.1993 40.7755 29.8391 39.4237 29.6536C38.6566 29.5475 37.9416 29.169 37.4948 28.5141C37.0182 27.8136 36.9065 26.9089 37.0182 26.0798C37.2304 24.486 38.2619 23.0815 39.6174 22.2828C40.9988 21.4687 42.6448 21.3628 44.1007 22.0291C44.596 22.2562 45.0541 22.5591 45.4525 22.9263C46.0445 23.2064 46.5472 23.6797 46.8861 24.2437C46.361 21.8966 45.0093 19.7463 43.0618 18.3569C40.5594 16.5738 37.2155 16.2142 34.3669 17.3007C33.5551 17.6111 32.7545 18.0389 32.0954 18.6219C31.548 19.1065 31.1794 19.6593 30.9485 20.3255C30.9485 20.3861 30.9523 20.4504 30.9559 20.511C31.5704 20.6662 32.1661 20.8782 32.7359 21.1698C33.2312 21.4233 33.6296 21.7831 34.069 22.1162C34.4748 22.4229 34.8621 22.7786 35.2084 23.1535C35.5659 23.5396 35.9085 23.9523 36.2287 24.3724C36.2622 24.4178 36.2063 24.4822 36.1654 24.4368C35.5063 23.7479 34.7616 23.2368 33.9461 22.7673C33.5514 22.5402 33.1231 22.3547 32.6838 22.1918C33.4992 22.9263 34.1471 23.8727 34.5158 24.8495C35.2829 26.8672 34.918 29.1425 33.6854 30.8877C33.2312 31.5312 32.6838 32.0765 32.0545 32.5041C31.857 32.8639 31.6225 33.2046 31.3581 33.5074C30.9932 33.9276 30.5687 34.2683 30.1032 34.5523C31.8608 34.5031 33.6408 34.6886 35.3574 34.8967C38.8986 35.3245 42.5739 35.881 46.0669 34.84C46.9122 34.0602 47.8766 33.4052 48.9565 32.9244C49.0198 32.8979 49.0867 32.8714 49.1502 32.845C49.7795 32.0234 50.2634 31.0922 50.5465 30.1078C50.8593 29.0252 50.8108 27.8023 49.9842 26.9619C49.3698 26.341 48.1968 26.1669 47.6122 26.9392C47.4037 27.2156 47.0425 27.1852 46.8451 27.0111V27.0073ZM23.8659 33.4165C25.0315 34.1547 26.465 34.4803 27.8206 34.2457C29.3882 33.9769 30.7586 32.9661 31.3619 31.4479C31.9241 30.0321 31.6746 28.374 30.3937 27.4616C29.7792 27.0262 28.9898 26.765 28.2376 26.924C27.4482 27.0906 26.7332 27.7304 26.5992 28.5595C26.4614 29.4151 27.128 30.1382 27.9434 30.2441C28.8483 30.3614 29.3324 29.2447 28.9749 28.5102C28.934 28.4231 29.0457 28.3172 29.1164 28.4005C29.6266 28.991 29.4553 29.8505 29.0345 30.4485C28.4647 31.2549 27.411 31.4442 26.5992 30.8763C25.7315 30.2706 25.3256 29.2107 25.5714 28.1696C25.8135 27.1474 26.6178 26.3259 27.5748 25.9662C28.111 25.7656 28.677 25.724 29.2281 25.811C28.1929 25.2999 27.0014 25.1637 25.888 25.5157C23.3669 26.3221 21.8626 29.1386 22.7935 31.6902C23.0318 32.3414 23.4042 32.9206 23.8659 33.4165ZM50.4721 32.3907C52.6839 31.8114 55.097 31.9932 57.1263 33.1099C58.1913 33.6967 59.0962 34.5485 59.7814 35.5554C60.0234 35.6994 60.2692 35.8432 60.5112 35.9908C61.4943 36.5815 62.4849 37.1304 63.546 37.5619C65.6761 38.4212 67.9662 38.9286 70.2599 38.9172C72.5278 38.9058 74.8253 38.3872 76.7728 37.1681C78.508 36.0818 79.9267 34.3819 80.6417 32.4398C81.353 30.5092 81.3678 28.3626 80.4667 26.4925C79.588 24.6677 77.9867 23.1535 76.0579 22.5628C75.1716 22.2903 74.2108 22.2032 73.3135 22.3584C74.87 22.3661 76.4377 23.0702 77.3425 24.3649C78.7426 26.3675 78.3182 29.2522 76.81 31.0618C75.1232 33.0873 72.3676 33.8633 69.8391 33.7194C66.7448 33.5415 63.8887 32.171 61.1257 30.8649C59.5132 30.104 57.8897 29.3431 56.1768 28.832C55.2981 28.5709 54.4006 28.3702 53.492 28.2718C52.885 28.2074 52.2781 28.1999 51.6674 28.2188C51.8908 29.6762 51.3434 31.1792 50.4721 32.3944V32.3907ZM59.0367 44.7661C59.8 44.8911 60.5597 44.9555 61.3528 44.8948C62.429 44.8154 63.4865 44.5731 64.5142 44.2475C66.5251 43.6077 68.4056 42.6234 70.3493 41.8057C74.0842 40.2308 78.3815 39.451 82.3919 40.265C83.4568 40.4807 84.5293 40.8782 85.4453 41.4878C84.9985 40.6171 84.7677 39.6328 84.7379 38.6409C84.2575 38.3948 83.8293 38.0465 83.3378 37.8118C82.7904 37.5505 82.2132 37.3613 81.6248 37.2288C81.0365 37.0963 80.4332 37.0319 79.83 37.0357C79.3905 37.0394 78.9623 37.1115 78.5304 37.1606C77.2532 38.2357 75.745 39.0156 74.1177 39.4699C71.4963 40.2044 68.67 40.1172 66.041 39.4699C64.1791 39.0119 62.3024 38.2547 60.6452 37.1985C60.9208 37.9064 61.0959 38.6484 61.1554 39.4094C61.3156 41.4499 60.4852 43.4147 59.0367 44.7661ZM49.8911 41.287C49.9768 40.7759 50.1667 40.2876 50.4423 39.8561C49.6417 40.2384 48.9341 40.8026 48.3905 41.5483C47.3552 42.9755 47.0164 44.8759 47.5303 46.5719C47.992 48.1052 49.0905 49.3886 50.405 50.2441C51.9242 51.2322 53.7303 51.6069 55.5176 51.5388C59.4573 51.3912 62.9205 49.2825 66.2681 47.3783C69.586 45.4931 73.0305 43.7289 76.7505 42.8278C78.6719 42.3622 80.6678 42.1162 82.6414 42.3055C84.0415 42.4379 85.397 42.8014 86.6779 43.3617C86.771 43.3844 86.8679 43.4108 86.9609 43.4336C86.488 42.9907 86.0523 42.5061 85.6986 41.942C85.6874 41.9231 85.68 41.9079 85.6688 41.889C83.0845 40.0189 79.3236 39.9924 76.2887 40.3899C74.2108 40.6625 72.2149 41.2606 70.286 42.0783C68.387 42.8846 66.5399 43.8386 64.5739 44.4709C63.5274 44.8078 62.4476 45.0502 61.3491 45.1334C60.5112 45.1978 59.6138 45.1826 58.7759 44.9857C58.4669 45.2469 58.1392 45.4817 57.7855 45.6861C55.5847 46.9429 52.6168 46.7763 50.8853 44.7661C50.0513 43.7971 49.6752 42.5591 49.8874 41.2833L49.8911 41.287ZM80.3886 35.1429C79.9379 35.7826 79.4166 36.3542 78.8506 36.8692C79.1969 36.8161 79.5507 36.801 79.8784 36.801C80.4853 36.801 81.0886 36.8692 81.6806 37.0016C82.2541 37.1304 82.809 37.331 83.3378 37.5884C83.7995 37.8118 84.3507 38.0806 84.7304 38.4629C84.7267 37.5279 84.8979 36.5965 85.2444 35.7486C85.5645 34.9649 86.0337 34.2646 86.6109 33.6702C85.8811 33.2235 85.099 32.8751 84.265 32.6784C83.4085 32.4739 82.5707 32.489 81.7142 32.5307C81.4014 33.462 80.9508 34.3479 80.3886 35.1466V35.1429ZM48.9229 55.4419C51.3061 56.7253 54.0766 56.9032 56.6869 56.3391C62.4885 55.0823 66.8974 50.8158 71.6303 47.4919C75.8083 44.558 80.7386 42.2789 85.8252 43.1799C84.7975 42.8241 83.7398 42.5743 82.6488 42.4721C80.7311 42.2941 78.7948 42.525 76.9255 42.9718C72.9857 43.9105 69.3774 45.8262 65.8808 47.8402C62.4997 49.7898 58.9137 51.8569 54.9033 51.7962C51.7121 51.747 48.3831 50.0208 47.3255 46.784C46.7409 44.9895 47.076 42.9415 48.182 41.4234C48.8299 40.5299 49.7459 39.8333 50.7699 39.4283C51.1088 39.0421 51.5258 38.7279 52.0174 38.5424C53.0675 38.1449 54.3261 38.3758 55.1863 39.0913C56.1061 39.8561 56.363 41.1015 55.8975 42.1994C55.7113 42.6423 55.4171 43.0398 55.0485 43.3428C54.9219 43.513 54.7729 43.6607 54.5831 43.7629C53.9612 44.0999 53.1866 44.0545 52.576 43.7099C51.9913 43.3768 51.5445 42.7219 51.6003 42.0215C51.6302 41.6543 51.7568 41.3325 51.9913 41.0524C52.1924 40.8138 52.4456 40.6927 52.736 40.6132C52.9036 40.5678 53.0488 40.5261 53.2201 40.5678C53.3653 40.6018 53.5105 40.6586 53.6335 40.7382C53.8979 40.9048 54.0543 41.128 54.1064 41.4385C54.1138 41.4725 54.0617 41.4878 54.0543 41.4536C53.991 41.2455 53.7787 41.0903 53.574 41.0524C53.3915 41.0183 53.2127 41.0789 53.0488 41.1583C52.9781 41.1925 52.9856 41.2076 52.926 41.2833C52.9185 41.2947 52.9074 41.306 52.8999 41.3174C52.8962 41.3249 52.8812 41.3438 52.8812 41.3477C52.8552 41.3893 52.8329 41.4271 52.8105 41.4688C52.7919 41.5029 52.777 41.5369 52.7584 41.571C52.7584 41.571 52.7398 41.6165 52.7324 41.6354C52.7025 41.7262 52.6801 41.8209 52.6616 41.9117C52.6616 41.9079 52.6616 41.9042 52.6616 41.9003C52.6616 41.9042 52.6616 41.9117 52.6616 41.9156C52.6616 41.9268 52.6616 41.9458 52.6616 41.9533C52.6616 41.9533 52.6616 41.9571 52.6616 41.961C52.6616 42.0026 52.6579 42.0443 52.6616 42.0858C52.6616 42.1237 52.6727 42.173 52.6727 42.173C52.6801 42.207 52.6877 42.2373 52.6988 42.2713C52.7063 42.2903 52.7137 42.3092 52.7212 42.332C52.7398 42.366 52.7584 42.4039 52.7807 42.4417C52.7919 42.4607 52.8069 42.4833 52.8217 42.5023C52.8515 42.5364 52.8812 42.5704 52.9111 42.6008C52.926 42.612 52.9707 42.6537 52.9893 42.6727C53.008 42.6878 53.0488 42.7142 53.06 42.7219C53.1047 42.7484 53.1494 42.7749 53.1941 42.7975C53.2425 42.79 53.291 42.7863 53.3467 42.79C54.3075 42.8922 55.1044 41.9571 55.0522 41.0032C54.9964 40.0113 53.9649 39.4586 53.0823 39.4699C51.9801 39.4813 51.2168 40.3595 50.9933 41.4045C50.7475 42.5515 51.2354 43.6531 52.0881 44.4027C53.8718 45.97 56.5269 45.5499 58.2063 44.0545C60.0234 42.4342 60.515 39.981 59.6883 37.7058C58.8244 35.3284 56.7279 33.7157 54.3038 33.2879C51.7568 32.8411 49.0943 33.7043 47.1431 35.3927C43.0767 38.9097 41.7622 45.3189 44.0486 50.2176C45.0838 52.436 46.8042 54.2986 48.9379 55.4495L48.9229 55.4419ZM5.97338 37.9594C5.38875 38.4137 4.85998 38.9437 4.40941 39.5342C8.89279 37.702 14.0018 37.5165 18.6229 38.9323C24.1228 40.6171 28.4945 44.8722 34.1173 46.2198C35.6962 46.5985 37.3756 46.7423 38.9769 46.4281C40.0493 46.2161 41.1366 45.7618 41.8441 44.9101C41.8553 43.7818 41.9968 42.6499 42.2612 41.5483C41.8367 41.8171 41.3563 42.0064 40.8722 42.1351C39.5205 42.491 38.0608 42.525 36.6719 42.4455C33.5663 42.2638 30.5687 41.3249 27.6679 40.2347C21.9631 38.0881 15.8561 35.0785 9.6152 36.4906C8.32305 36.782 7.08677 37.278 5.96965 37.9632L5.97338 37.9594ZM10.885 39.2919C13.257 39.8977 15.3497 41.253 17.4127 42.544C19.6878 43.9673 21.9296 45.4513 24.1973 46.8862C25.0612 47.4313 25.9252 47.9765 26.8189 48.4648C28.0179 49.1235 29.3361 49.5589 30.6581 49.8693C32.7285 50.3539 34.877 50.4562 36.9846 50.1911C38.8427 49.9563 40.6936 49.3998 42.2054 48.2491C42.1309 47.9424 42.0676 47.6319 42.0191 47.3177C41.9037 46.5985 41.8441 45.8641 41.8441 45.1296C40.5483 46.6893 38.0235 46.9013 36.1617 46.7461C33.3167 46.5114 30.6506 45.3226 28.1743 43.9522C25.605 42.5326 23.1324 40.8934 20.4029 39.7955C17.8261 38.762 15.0555 38.2622 12.2888 38.2736C10.4903 38.2812 8.69915 38.5235 6.95644 38.9665C8.26719 38.8301 9.62263 38.9665 10.8887 39.2919H10.885ZM17.3344 35.5933C14.0874 35.3738 10.669 35.4078 7.71982 36.8692C7.83152 36.8238 7.93951 36.782 8.05122 36.7405C10.736 35.7523 13.6405 35.7523 16.4259 36.252C22.6519 37.3689 28.1669 40.9085 34.4041 41.9836C36.143 42.2827 37.9268 42.3849 39.6807 42.1654C40.5744 42.0555 41.5462 41.8323 42.3171 41.3287C42.9092 39.0156 44.0523 36.8502 45.6944 35.1921C44.6593 35.4646 43.5906 35.6122 42.5256 35.6615C38.6901 35.847 34.9217 34.8551 31.0937 34.7908C30.5984 34.7832 30.1069 34.7908 29.6154 34.8173C28.7365 35.2412 27.7498 35.4381 26.7705 35.4116C26.1896 35.5593 25.5975 35.6766 25.0053 35.7637C25.0053 35.7637 24.9979 35.7637 24.9943 35.7637C24.9943 35.7637 24.9905 35.7637 24.9868 35.7637C24.4171 35.847 23.8473 35.9113 23.2702 35.9417C21.2965 36.0439 19.3006 35.722 17.3344 35.5896V35.5933ZM26.4242 21.6846C24.8677 22.1692 23.4154 23.1496 22.4733 24.5125C21.5275 25.8829 21.1289 27.5866 21.345 29.2447C21.5163 30.5357 22.0785 31.8114 22.9984 32.7313C22.2051 31.395 21.9892 29.6876 22.5886 28.2376C23.6723 25.6218 26.7481 24.2665 29.2951 25.5574C29.5595 25.6937 29.8239 25.8564 30.0808 26.0495C30.9708 26.4015 31.7528 27.0679 32.2183 27.8894C32.9444 29.1728 32.8588 30.7022 32.2853 32.0197C33.395 31.0883 34.1956 29.7936 34.5046 28.3512C34.9366 26.3524 34.2961 24.2816 32.9444 22.7825C32.6688 22.4758 32.3672 22.2107 32.0507 21.9761C31.8422 21.9079 31.6337 21.8397 31.4288 21.7717C29.8016 21.2378 28.0589 21.1773 26.4204 21.6884L26.4242 21.6846ZM56.1842 3.62667C52.9669 2.79381 49.1799 3.75917 47.035 6.42432C45.9886 7.72282 45.4152 9.5059 45.6982 11.1792C45.9552 12.7162 46.9234 14.1018 48.3458 14.734C49.6453 15.3132 51.2094 15.0633 52.2669 14.098C53.2872 13.1667 53.5702 11.7584 53.0228 10.4826C52.7063 9.74819 52.2333 9.13868 51.4774 8.83583C50.4944 8.43832 49.5448 8.93803 49.165 9.91475C48.8224 10.7893 49.0571 12.0575 50.0363 12.3906C51.0045 12.72 51.8833 11.7395 51.47 10.7893C51.4401 10.7211 51.5221 10.6416 51.5779 10.706C52.0472 11.2473 51.8573 12.0537 51.3285 12.489C50.7141 12.9963 49.7906 12.8222 49.2171 12.3376C48.5059 11.7357 48.4017 10.6265 48.707 9.78604C49.0124 8.93425 49.7459 8.23769 50.6396 8.09383C51.5743 7.94239 52.5015 8.29825 53.1941 8.93425C53.842 9.52861 54.2218 10.3312 54.3447 11.2019C54.6091 13.0758 53.6037 14.8513 51.9168 15.6388C50.2672 16.4111 48.4426 16.1688 46.9903 15.1163C47.1281 16.9487 47.6346 18.7015 48.5952 20.2838C49.6565 22.0291 51.1758 23.4336 52.9521 24.3989C56.7652 26.4736 61.364 26.3486 65.2627 24.5693C66.2756 24.1075 67.255 23.5471 68.1076 22.8165C68.7147 22.2979 69.1988 21.696 69.5785 21.0183C69.236 21.1508 68.8859 21.2568 68.5246 21.3287C65.9032 22.6235 62.9167 23.0891 60.1984 21.677C56.5231 19.7652 55.7001 14.9157 56.8508 11.2095C57.1748 10.1646 57.6515 9.16518 58.2621 8.26418C58.8206 7.44268 59.517 6.5606 60.3622 6.02303C60.3436 6.0041 60.325 5.98139 60.3027 5.96246C59.1521 4.83432 57.7296 4.02416 56.1768 3.62288L56.1842 3.62667ZM60.5224 6.1896C59.8893 6.83696 59.2228 7.4124 58.6828 8.15439C58.1392 8.90397 57.6886 9.72547 57.3498 10.5924C56.6795 12.3111 56.4412 14.2154 56.7391 16.0438C57.0668 18.0464 58.0275 19.9772 59.7367 21.1054C61.349 22.1692 63.3822 22.4758 65.2589 22.1843C66.1452 22.048 66.998 21.7831 67.8246 21.4386C67.0203 21.5142 66.2048 21.4423 65.434 21.1924C63.7695 20.6473 62.3693 19.3867 61.5576 17.8232C60.0904 15.0104 60.7123 11.7054 62.5556 9.30904C62.0194 8.16954 61.3863 7.10575 60.515 6.1896H60.5224ZM85.006 10.3615C84.8794 9.08568 84.3841 7.8326 83.5165 6.89375C81.8669 5.11067 79.1039 4.49738 77.108 6.0571C76.0765 6.86345 75.395 8.10896 75.4174 9.44532C75.4286 10.0548 74.4454 10.2252 74.3449 9.59297C74.0768 7.92346 72.5128 7.00353 70.9637 6.84453C69.3216 6.67418 67.5901 7.02625 66.1155 7.77583C65.151 8.26418 64.2871 8.96454 63.5871 9.7974C63.5535 9.86554 63.5014 9.92612 63.4381 9.97154C62.1832 11.5502 61.5241 13.5869 61.9449 15.6615C62.5183 18.4856 65.1063 20.7457 68.0109 20.3142C69.3961 20.1097 70.759 19.3526 71.5744 18.1828C72.5278 16.82 72.7549 15.1126 71.9654 13.621C71.6155 12.9585 70.9675 12.3338 70.2487 12.118C69.478 11.8871 68.6066 12.0688 67.9588 12.5458C66.9459 13.2954 66.7969 14.7453 67.4188 15.7334C67.6123 15.8849 67.806 16.0401 67.9959 16.2028C68.1561 16.3392 68.4167 16.4944 68.521 16.6836C68.6624 16.9334 68.4503 17.1417 68.2342 17.2401C67.5566 17.5544 66.7038 17.471 66.0298 17.1834C64.4175 16.4905 63.7471 14.628 64.1195 12.9585C64.9202 9.38097 70.2377 7.36318 72.6432 10.5205C73.615 11.7963 73.764 13.3635 73.496 14.8817C73.5517 15.2413 73.5629 15.6123 73.5257 15.9833C73.332 17.9253 72.1628 19.6327 70.502 20.5943C70.2786 20.723 70.0402 20.8366 69.8019 20.9389C69.1801 22.5061 67.6049 23.6342 66.1974 24.3876C64.2126 25.4476 62.0082 26.0912 59.7627 26.2009C55.5661 26.4092 51.2763 24.6033 48.7815 21.0977C47.5228 19.326 46.685 17.1038 46.6924 14.8968C45.9328 14.2645 45.3817 13.4431 45.0465 12.5383C44.8231 12.4512 44.6034 12.3641 44.3837 12.2543C44.0412 12.084 43.7023 11.9098 43.3486 11.7584C42.6894 11.4707 41.9894 11.2738 41.2818 11.1451C39.8408 10.8839 38.3289 10.9861 36.9325 11.4366C34.1583 12.3301 32.0619 14.734 31.2613 17.5467C31.0713 18.2093 30.9597 18.8907 30.9299 19.5797C31.4512 18.6371 32.4603 17.9216 33.3503 17.4635C34.7839 16.7253 36.4038 16.3808 38.0087 16.43C41.1739 16.5247 44.0672 18.213 45.7615 20.9312C46.4876 22.0973 46.9606 23.4033 47.1431 24.7623C47.2771 25.0879 47.3851 25.4628 47.4149 25.8299C47.9659 25.4552 48.6549 25.3189 49.3326 25.4438C50.3902 25.6369 51.1609 26.5341 51.4998 27.5298C51.5482 27.6774 51.5891 27.8212 51.6226 27.9688C52.7324 27.8591 53.8792 28.0067 54.9592 28.2415C56.363 28.5443 57.7148 29.0478 59.0329 29.6194C61.7587 30.8044 64.3728 32.3074 67.2698 33.0494C69.8503 33.7118 72.6916 33.6967 75.0226 32.2506C77.134 30.9407 78.4447 28.3854 77.7708 25.8716C77.4095 24.5277 76.4414 23.4714 75.1753 22.9528C74.2779 22.5856 73.3135 22.5023 72.3714 22.6348C71.6117 22.9415 70.9415 23.4563 70.4722 24.24C69.9136 25.1637 69.6939 26.2653 69.7796 27.3443C69.869 28.4194 70.3046 29.6006 71.2245 30.2138C72.1516 30.8309 73.4028 30.7741 74.3152 30.1571C75.2275 29.54 75.8046 28.4156 75.8009 27.3064C75.8009 26.7006 75.6705 26.0987 75.2572 25.6444C74.8662 25.2129 74.2555 24.9517 73.6783 25.069C73.1757 25.1712 72.7698 25.5839 72.673 26.0987C72.5873 26.5606 72.781 27.0111 73.239 27.1549C73.5406 27.2496 73.9875 27.1966 74.1848 26.9165C74.464 26.519 75.1194 26.9014 74.8365 27.3026C74.2519 28.1392 73.0081 28.0673 72.4383 27.2345C71.8649 26.394 72.4012 25.194 73.2613 24.8116C74.3338 24.3345 75.544 25.0653 76.0094 26.0647C76.5344 27.1966 76.3445 28.533 75.6818 29.5703C75.0226 30.6037 73.8944 31.2701 72.673 31.2624C71.4106 31.2549 70.3232 30.5318 69.7386 29.4037C68.6178 27.2458 69.1243 24.1983 71.0234 22.6538C72.2001 21.696 73.6486 21.3553 75.0823 21.4801C74.4082 20.8556 73.9651 19.9242 73.7826 19.0572C73.4475 17.4635 73.6859 15.7371 74.3897 14.2759C75.7302 11.5085 79.1411 9.72547 82.0754 10.9748C83.2744 11.4858 84.1905 12.4739 84.7192 13.6589C84.9576 12.5799 85.1214 11.4896 85.0097 10.3728L85.006 10.3615ZM73.4103 14.4425C73.4958 13.4999 73.4103 12.5534 73.0379 11.6638C72.3602 10.0359 70.826 9.07432 69.087 9.18032C67.4857 9.27876 65.8884 10.1987 64.9835 11.5464C64.1121 12.8449 63.937 14.662 64.8792 15.9794C65.3781 16.676 66.1936 17.1379 67.0389 17.2061C67.255 17.225 67.4747 17.2174 67.6868 17.1796C67.847 17.1531 68.238 17.0887 68.3273 16.9373C68.387 16.8389 68.3125 16.7215 68.2082 16.6155C66.9719 16.0892 66.4022 14.4463 66.9607 13.2197C67.6385 11.7319 69.504 11.1603 70.9675 11.6751C72.2261 12.118 73.0862 13.1932 73.4065 14.4425H73.4103ZM99.0482 14.6355C98.1657 13.0191 96.7916 11.713 95.1569 10.9104C93.5668 10.1305 91.7348 9.91097 90.0293 10.4145C88.3647 10.9066 86.8939 12.0083 85.9704 13.5036C87.1694 12.9244 88.6813 12.932 89.9399 13.1175C91.6901 13.3749 93.3545 14.1397 94.7361 15.2602C97.5289 17.5316 98.8545 21.2454 97.9422 24.7927C97.6481 25.936 97.1454 27.0111 96.4602 27.95C98.6944 26.3032 100.005 23.3087 100.225 20.564C100.389 18.5273 100.035 16.4337 99.0556 14.6355H99.0482ZM108.049 29.3204C107.821 28.6654 107.434 28.056 106.976 27.6168C105.49 26.1972 103.226 26.1177 101.502 27.136C99.7632 28.162 98.7503 30.2176 98.7465 32.2354C98.7465 33.25 98.9961 34.2759 99.5434 35.1315C100.095 35.9946 100.94 36.6116 101.882 36.9676C103.137 37.4408 104.41 37.4522 105.676 37.2742C105.379 37.1985 105.084 37.1001 104.798 36.9751C102.992 36.1877 101.614 34.3327 101.551 32.3111C101.491 30.3728 102.902 28.5292 104.786 28.1431C105.766 27.9423 106.753 28.1582 107.538 28.7941C107.728 28.9494 107.9 29.1274 108.049 29.3241V29.3204ZM124.656 35.5328C120.501 35.1732 116.524 36.6079 112.48 37.3121C111.459 37.49 110.42 37.5505 109.385 37.5505C108.842 37.5505 108.317 37.5051 107.795 37.4294C107.393 37.4673 106.983 37.4711 106.581 37.4294C105.04 37.7436 103.457 37.8118 101.956 37.2893C100.992 36.9525 100.106 36.3732 99.4876 35.5365C98.8471 34.6658 98.5232 33.587 98.4747 32.508C98.3816 30.3766 99.387 28.1696 101.171 27.0073C102.928 25.864 105.3 25.8527 106.931 27.2345C107.747 27.9273 108.354 28.938 108.462 30.0246C108.462 30.0472 108.462 30.07 108.462 30.0926C108.618 30.5243 108.674 30.9936 108.585 31.4593C108.402 32.4096 107.561 33.3938 106.54 33.3447C105.688 33.3029 104.995 32.6102 104.794 31.7887C104.705 31.4177 104.753 31.0808 104.958 30.7627C105.01 30.6794 105.155 30.7287 105.122 30.8346C104.891 31.5502 105.364 32.489 106.179 32.4436C106.875 32.4058 107.523 31.7281 107.542 31.0201C107.561 30.2858 107.006 29.6346 106.377 29.3469C105.743 29.0592 105.006 29.1311 104.392 29.4302C103.003 30.1116 102.351 31.641 102.764 33.1402C103.193 34.681 104.489 35.8508 106 36.218C107.438 36.5662 108.994 36.2294 110.238 35.4343C111.59 34.5674 112.431 33.1478 112.688 31.5577C112.953 29.9185 112.562 28.1657 111.657 26.7878C110.744 25.3984 109.289 24.4255 107.728 23.956C105.911 23.407 103.971 23.551 102.221 24.293C101.39 24.645 100.579 25.069 99.8265 25.5763C98.4449 28.1279 96.1548 30.0889 93.1163 30.3047C90.9416 30.4599 88.7781 29.4339 87.5642 27.5827C86.4359 25.864 86.4471 23.5282 87.6349 21.8397C88.2195 21.0032 89.0463 20.352 90.0331 20.0908C91.0943 19.8106 92.2784 19.9696 93.1498 20.6776C94.3227 21.6278 94.5276 23.3238 93.8871 24.5542C94.118 24.2589 94.3079 23.9144 94.4382 23.532C94.8218 22.419 94.7435 21.1849 94.3301 20.0908C93.4477 17.7587 91.1762 16.3657 88.7483 16.5019C86.2348 16.642 84.1346 18.3229 83.1962 20.6624C82.2579 23.0096 82.6451 25.6709 83.9894 27.7721C84.7713 28.991 85.8513 29.9829 87.1025 30.6833C88.0334 31.2056 89.0164 31.5275 90.0367 31.7395C91.9507 31.3155 93.9541 31.7735 95.518 32.9887C97.0671 34.1964 98.1024 36.0476 98.1917 38.0351C98.795 38.7203 99.4503 39.3336 100.243 39.7993C101.171 40.3406 102.195 40.67 103.249 40.829C105.665 41.1962 108.156 40.7268 110.487 40.0946C115.068 38.8566 119.499 36.7063 124.31 36.5662C126.451 36.5057 128.675 36.8502 130.574 37.8912C128.947 36.4829 126.768 35.7107 124.645 35.529L124.656 35.5328Z" fill="white"/>
<path d="M52.6611 41.9535C52.6611 41.9535 52.6611 41.927 52.6649 41.9117C52.6649 41.961 52.6611 41.9685 52.6611 41.9535Z" fill="white"/>
</g>
</svg>
