<svg width="238" height="44" viewBox="0 0 238 44" fill="none" xmlns="http://www.w3.org/2000/svg">
<g clip-path="url(#clip0_85_764)">
<rect width="238" height="44" rx="8" fill="url(#paint0_linear_85_764)"/>
<g opacity="0.2">
<path d="M231.487 11.7007C230.429 9.28552 227.945 7.9567 225.387 8.26335C222.781 8.57384 220.684 10.4553 219.831 12.9501C218.956 15.513 219.574 18.3637 221.179 20.4875C222.445 22.1608 224.374 23.4025 226.426 23.9136C225.402 24.2468 224.464 24.8222 223.7 25.5831C222.985 25.0644 222.177 24.6897 221.321 24.4777C220.52 24.2808 219.623 24.171 218.789 24.3073C219.209 22.9406 219.332 21.4869 219.061 20.0635C218.729 18.3258 217.806 16.7131 216.517 15.513C216.074 14.8165 215.743 14.0442 215.571 13.2416C215.158 11.3336 215.657 9.31955 216.886 7.82045C217.496 7.07844 218.29 6.41589 219.198 6.09414C219.679 5.92373 220.2 5.86322 220.703 5.93896C221.027 5.98821 221.306 6.10552 221.574 6.26454C221.567 6.28719 221.563 6.30996 221.559 6.33644C221.455 6.76795 222.006 6.97239 222.237 6.628C222.334 6.48407 222.419 6.32889 222.501 6.17371C222.524 6.1471 222.542 6.11691 222.565 6.0903C223.246 5.63985 223.991 5.38616 224.847 5.32181C225.83 5.24621 226.832 5.34459 227.785 5.59444C231.021 6.43482 233.836 9.05077 234.655 12.3861C235.307 15.0512 234.689 18.0306 233.058 20.2225C232.246 20.7373 231.323 21.0819 230.299 21.1802C228.519 21.3545 226.664 20.6616 225.607 19.1436C224.635 17.7542 224.575 15.9483 225.514 14.5174C226.374 13.2075 228.534 12.3784 229.714 13.764C230.224 14.3622 230.366 15.3162 229.982 16.0165C229.781 16.3875 229.465 16.6752 229.111 16.8948C228.999 16.9668 228.865 17.0122 228.761 17.0917C228.686 17.1485 228.634 17.2279 228.563 17.2924C228.377 17.4513 228.131 17.493 227.897 17.5233C227.811 17.5346 227.796 17.6406 227.878 17.6746C228.113 17.7656 228.355 17.811 228.597 17.8677C228.828 17.9208 229.036 17.9851 229.271 17.917C229.439 17.8677 229.591 17.7996 229.736 17.7277C230.608 17.4476 231.334 16.6184 231.665 15.7705C232.172 14.4606 232.045 12.9691 231.49 11.7007H231.487Z" fill="#83CDCE"/>
<path d="M225.476 35.9105C224.701 35.1913 223.934 34.4 223.42 33.4611C222.527 31.8333 222.407 29.8269 223.108 28.1005C224.329 25.0796 228.202 23.6373 231.032 25.2235C232.342 25.9578 233.392 27.2185 233.858 28.6723C234.372 30.2774 234.174 32.2459 232.849 33.3931C231.601 34.4758 229.654 34.5477 228.388 33.4536C227.029 32.2762 226.891 30.1828 228.235 28.9411C228.894 28.3315 229.888 28.0854 230.749 28.3391C231.598 28.589 232.223 29.4029 232.145 30.319C232.074 31.1518 231.292 31.8219 230.458 31.6782C230.037 31.6061 229.613 31.2958 229.527 30.8527C229.475 30.5727 229.598 30.2319 229.885 30.1335C230.168 30.0388 230.451 30.2622 230.443 30.5575C230.443 30.7657 230.752 30.7657 230.76 30.5575C230.778 30.1789 230.51 29.8458 230.149 29.7663C229.747 29.6754 229.367 29.9518 229.203 30.3115C229.017 30.7203 229.14 31.1936 229.416 31.5267C229.974 32.2005 230.98 32.174 231.657 31.7008C232.387 31.1935 232.596 30.2622 232.313 29.4332C232.003 28.5246 231.21 27.9264 230.279 27.8016C229.27 27.6652 228.25 28.1158 227.554 28.8501C226.82 29.6263 226.496 30.7203 226.615 31.7841C226.876 34.0858 229.084 35.5774 231.285 35.2632C231.62 35.2139 231.937 35.1269 232.238 35.0095C233.769 36.9138 236.379 37.8148 238.717 37.9964C244.467 38.4393 249.427 34.7218 254.264 32.1437C256.781 30.8036 259.477 29.6338 262.341 29.4255C264.192 29.2893 266.117 29.543 267.818 30.3115C267.55 30.2396 267.275 30.1789 266.995 30.1373C264.545 29.7776 262.009 30.5159 259.891 31.7576C257.534 33.1356 255.605 35.1534 253.583 36.963C251.535 38.7953 249.326 40.3436 246.705 41.1992C244.162 42.0282 241.41 42.2668 238.77 41.8238C233.899 41.0099 230.052 37.6861 225.528 35.9635C225.509 35.9484 225.494 35.9295 225.476 35.9144V35.9105Z" fill="#08B4BE"/>
<path d="M240.472 33.1583C242.829 33.4611 245.239 33.0031 247.51 32.3822C249.86 31.7424 252.143 30.868 254.466 30.141C256.786 29.4143 259.177 28.8199 261.616 28.782C263.284 28.7555 264.93 29.0091 266.487 29.5732C265.056 29.1378 263.522 29.028 262.022 29.1643C256.291 29.6943 251.673 33.6429 246.59 35.9749C244.062 37.1333 241.314 37.9435 238.517 37.6822C237.281 37.5649 236.048 37.2506 234.928 36.6979C234.004 36.2436 233.215 35.6228 232.496 34.8997C234.146 34.1349 235.155 32.3746 235.203 30.4666C235.203 30.4363 235.203 30.4023 235.203 30.372C236.346 32.0567 238.562 32.9085 240.472 33.1545V33.1583Z" fill="#83CDCE"/>
<path d="M210.901 10.0085C210.715 6.98757 212.45 3.98923 215.366 3.0958C216.71 2.68315 218.204 2.75129 219.444 3.44786C220.445 4.01194 221.179 4.93183 221.641 5.98433C221.641 5.99188 221.641 5.99571 221.637 6.00326C220.989 5.45047 219.749 5.56407 219.064 5.82147C217.139 6.54838 215.724 8.50177 215.299 10.5007C214.975 12.0338 215.213 13.6656 215.951 15.0285C215.623 14.7709 215.277 14.54 214.912 14.3394C214.212 13.9532 213.448 13.6807 212.666 13.5445C212.294 13.2983 211.963 12.9917 211.702 12.6056C211.188 11.8483 210.957 10.9208 210.901 10.0123V10.0085Z" fill="#045282"/>
<path d="M179.913 20.1506C179.447 20.5405 178.978 20.8889 178.383 21.116C177.582 21.4226 176.74 21.5589 175.914 21.2825C174.208 20.7146 173.944 18.6931 174.499 17.175C175.005 15.7932 176.148 14.6688 177.507 14.1578C178.963 13.6089 180.505 13.889 181.738 14.6916C180.174 14.3963 178.45 15.2406 177.895 16.7965C177.623 17.5611 177.656 18.5 178.114 19.1852C178.524 19.7985 179.209 20.1203 179.917 20.1469L179.913 20.1506Z" fill="#83CDCE"/>
<path d="M197.642 29.1984C199.295 30.2546 201.176 31.008 203.038 31.4698C205.667 32.121 208.493 32.2081 211.114 31.4698C212.742 31.0155 214.25 30.2358 215.527 29.1605C215.959 29.1114 216.387 29.0432 216.826 29.0356C217.43 29.0281 218.033 29.0924 218.621 29.2287C219.21 29.3612 219.787 29.5543 220.334 29.8117C220.826 30.0464 221.254 30.3909 221.734 30.6408C221.764 31.6326 221.999 32.6131 222.442 33.4877C221.526 32.8744 220.45 32.4769 219.389 32.2649C215.374 31.4547 211.081 32.2346 207.346 33.8057C205.406 34.6233 203.522 35.6039 201.511 36.2474C200.483 36.5768 199.426 36.8153 198.349 36.8947C197.556 36.9554 196.797 36.891 196.033 36.766C197.482 35.4146 198.312 33.4498 198.152 31.4093C198.092 30.6483 197.914 29.9063 197.642 29.1984Z" fill="#83CDCE"/>
<path d="M162.887 17.5157C164.001 17.1598 165.189 17.2999 166.227 17.811C165.676 17.7277 165.11 17.7693 164.574 17.9662C163.617 18.3221 162.813 19.1435 162.571 20.1696C162.325 21.2144 162.731 22.2706 163.598 22.8763C164.41 23.4441 165.464 23.2549 166.034 22.4485C166.455 21.8503 166.626 20.991 166.116 20.4005C166.045 20.3172 165.933 20.4231 165.974 20.5102C166.332 21.2447 165.848 22.3614 164.943 22.2441C164.131 22.138 163.461 21.415 163.598 20.5595C163.733 19.7265 164.447 19.0906 165.237 18.924C165.985 18.765 166.779 19.0262 167.393 19.4616C168.674 20.374 168.92 22.0321 168.361 23.4479C167.758 24.9698 166.388 25.9768 164.82 26.2455C163.461 26.4803 162.027 26.151 160.865 25.4165C160.404 24.9206 160.031 24.3414 159.793 23.6902C158.858 21.1386 160.366 18.3221 162.887 17.5157Z" fill="#83CDCE"/>
<path d="M184.612 18.9353C185.197 18.1592 186.37 18.3371 186.984 18.9579C187.811 19.7946 187.86 21.0174 187.547 22.1039C187.26 23.0882 186.776 24.0195 186.15 24.841C186.087 24.8675 186.02 24.894 185.957 24.9204C184.877 25.4013 183.912 26.0562 183.067 26.8361C179.578 27.8772 175.899 27.3207 172.358 26.8929C170.641 26.6846 168.861 26.4991 167.104 26.5484C167.565 26.2682 167.993 25.9237 168.358 25.5036C168.623 25.1969 168.857 24.8599 169.055 24.5003C169.688 24.0725 170.231 23.5274 170.686 22.8838C171.918 21.1385 172.283 18.8634 171.516 16.8455C171.147 15.8726 170.499 14.9224 169.684 14.188C170.12 14.3507 170.548 14.5325 170.946 14.7634C171.762 15.2366 172.507 15.7477 173.166 16.4329C173.207 16.4745 173.262 16.414 173.229 16.3686C172.909 15.9483 172.566 15.5356 172.209 15.1495C171.862 14.7785 171.475 14.4189 171.069 14.1123C170.63 13.7791 170.231 13.4195 169.736 13.1658C169.166 12.8743 168.571 12.6623 167.956 12.5071C167.956 12.4466 167.956 12.3822 167.949 12.3216C168.18 11.6553 168.548 11.1025 169.096 10.6181C169.755 10.0351 170.552 9.60726 171.367 9.29677C174.216 8.21025 177.56 8.56999 180.062 10.353C182.01 11.7424 183.365 13.8927 183.886 16.2399C183.548 15.6757 183.045 15.2025 182.453 14.9224C182.054 14.5552 181.596 14.2523 181.101 14.0251C179.641 13.3589 177.995 13.4686 176.618 14.2788C175.262 15.0776 174.231 16.4821 174.019 18.076C173.907 18.905 174.019 19.8098 174.495 20.5101C174.942 21.165 175.657 21.5437 176.424 21.6496C177.776 21.8351 179.34 21.1992 180.248 20.1353C180.3 20.1316 180.353 20.1277 180.405 20.1202C181.261 19.9839 182.021 19.3517 182.203 18.4659C182.367 17.6519 181.954 16.7964 181.157 16.5276C180.438 16.2853 179.578 16.7547 179.422 17.5232C179.276 18.2387 179.917 19.1056 180.677 18.886C180.785 18.8557 180.799 18.6702 180.677 18.6476C180.323 18.5832 179.988 18.3749 179.861 18.0192C179.731 17.6519 179.909 17.2695 180.211 17.0538C180.889 16.573 181.775 17.1711 181.838 17.9471C181.965 19.541 179.742 20.0672 178.796 19.0412C177.951 18.1214 178.465 16.626 179.336 15.9408C180.237 15.2328 181.54 15.1079 182.486 15.7856C182.941 16.1111 183.298 16.607 183.492 17.1332C183.596 17.4134 183.663 17.7125 183.674 18.0115C183.685 18.2992 183.652 18.5604 183.715 18.8444C183.73 18.9163 183.782 18.9693 183.845 19.0035C184.046 19.1813 184.404 19.2116 184.612 18.9314V18.9353Z" fill="white"/>
<path d="M190.488 20.268C191.396 20.3665 192.297 20.5671 193.172 20.8283C194.882 21.3394 196.505 22.0965 198.121 22.8613C200.888 24.1673 203.74 25.5377 206.835 25.7157C209.363 25.8633 212.123 25.0834 213.806 23.058C215.314 21.2486 215.738 18.3638 214.338 16.3612C213.433 15.0702 211.866 14.3622 210.309 14.3547C211.207 14.2032 212.167 14.2903 213.054 14.5591C214.982 15.1497 216.587 16.664 217.463 18.4887C218.364 20.3588 218.349 22.5054 217.637 24.4361C216.923 26.3819 215.5 28.0818 213.769 29.1645C211.825 30.3834 209.523 30.9022 207.256 30.9134C204.962 30.9248 202.668 30.4137 200.542 29.5581C199.481 29.1304 198.486 28.5776 197.507 27.9871C197.265 27.8432 197.019 27.6955 196.777 27.5518C196.092 26.5447 195.187 25.6929 194.122 25.1062C192.093 23.9894 189.683 23.8077 187.468 24.3868C188.339 23.1755 188.886 21.6687 188.663 20.2112C189.27 20.1961 189.877 20.1999 190.488 20.2642V20.268Z" fill="#045282"/>
<path d="M194.789 37.69C195.143 37.4892 195.474 37.2508 195.78 36.9895C196.617 37.1864 197.515 37.2015 198.353 37.1372C199.447 37.0539 200.531 36.8116 201.577 36.4747C203.544 35.8425 205.39 34.8885 207.29 34.0822C209.218 33.2644 211.214 32.6625 213.292 32.3937C216.327 31.9962 220.084 32.0227 222.672 33.8928C222.683 33.9118 222.691 33.9269 222.702 33.9458C223.056 34.5061 223.488 34.9944 223.965 35.4375C223.871 35.4109 223.775 35.3882 223.682 35.3654C222.4 34.8052 221.049 34.4418 219.645 34.3092C217.671 34.12 215.676 34.3699 213.754 34.8317C210.034 35.7289 206.59 37.4931 203.272 39.3821C199.924 41.2864 196.461 43.3988 192.521 43.5426C190.734 43.6108 188.928 43.2361 187.409 42.2479C186.094 41.3923 184.996 40.109 184.534 38.5758C184.024 36.8798 184.359 34.9794 185.394 33.5521C185.938 32.8026 186.649 32.2384 187.446 31.8599C187.17 32.2915 186.977 32.7798 186.895 33.2909C186.686 34.5666 187.059 35.8046 187.893 36.7737C189.624 38.7877 192.592 38.9506 194.793 37.6937L194.789 37.69Z" fill="white"/>
<path d="M233.453 19.95C234.138 19.0111 234.644 17.936 234.935 16.7927C235.847 13.2455 234.521 9.52782 231.729 7.26023C230.351 6.13967 228.686 5.3749 226.932 5.1175C225.677 4.932 224.162 4.92445 222.963 5.50359C223.886 4.00828 225.357 2.90663 227.022 2.41449C228.727 1.91099 230.556 2.13056 232.149 2.91042C233.788 3.713 235.158 5.01912 236.041 6.63553C237.02 8.43374 237.374 10.5273 237.21 12.564C236.99 15.3087 235.676 18.3032 233.445 19.95H233.453Z" fill="white"/>
<path d="M219.071 2.96352C216.137 1.71424 212.722 3.49731 211.386 6.26467C210.678 7.72219 210.44 9.44851 210.779 11.046C210.961 11.9168 211.408 12.8443 212.078 13.4689C210.645 13.344 209.192 13.6847 208.019 14.6425C206.124 16.1871 205.617 19.2345 206.735 21.3925C207.319 22.5169 208.407 23.2399 209.669 23.2512C210.89 23.2589 212.019 22.5963 212.678 21.559C213.337 20.5218 213.53 19.1854 213.005 18.0535C212.54 17.054 211.33 16.3233 210.257 16.8004C209.397 17.1827 208.861 18.3827 209.434 19.2233C210.004 20.0561 211.248 20.128 211.832 19.2913C212.115 18.8863 211.46 18.5039 211.181 18.9052C210.987 19.1854 210.537 19.2384 210.235 19.1437C209.777 18.9999 209.583 18.5493 209.669 18.0875C209.766 17.5727 210.172 17.16 210.674 17.0578C211.252 16.9404 211.862 17.2017 212.253 17.6332C212.666 18.0875 212.797 18.6932 212.797 19.2952C212.797 20.4043 212.223 21.5287 211.311 22.1459C210.399 22.7629 209.148 22.8197 208.22 22.2025C207.301 21.5894 206.865 20.4082 206.776 19.333C206.686 18.2579 206.91 17.1563 207.468 16.2288C207.941 15.4489 208.608 14.9303 209.367 14.6236C210.309 14.4911 211.27 14.5743 212.171 14.9415C213.437 15.4601 214.406 16.5165 214.767 17.8604C215.441 20.3741 214.13 22.9294 212.019 24.2393C209.688 25.6855 206.843 25.7006 204.266 25.0381C201.372 24.2961 198.758 22.7932 196.029 21.6083C194.711 21.0366 193.359 20.533 191.955 20.2302C190.875 19.9955 189.728 19.8517 188.619 19.9576C188.585 19.81 188.548 19.6623 188.496 19.5185C188.157 18.5228 187.386 17.6256 186.329 17.4326C185.651 17.3076 184.962 17.444 184.411 17.8187C184.381 17.4552 184.273 17.0805 184.139 16.7511C183.957 15.3921 183.484 14.086 182.757 12.9199C181.063 10.2018 178.174 8.51345 175.005 8.41878C173.4 8.36953 171.78 8.71405 170.346 9.45221C169.46 9.91034 168.447 10.6259 167.926 11.5685C167.956 10.8794 168.067 10.1981 168.257 9.5355C169.062 6.72279 171.158 4.3226 173.928 3.42537C175.325 2.97488 176.837 2.87266 178.278 3.13388C178.982 3.26259 179.685 3.45946 180.344 3.74716C180.694 3.89859 181.037 4.07274 181.38 4.2431C181.603 4.35288 181.823 4.43995 182.043 4.52702C182.378 5.43183 182.929 6.25328 183.688 6.88552C183.685 9.0926 184.519 11.3148 185.777 13.0865C188.272 16.5959 192.562 18.398 196.759 18.1897C199 18.0799 201.205 17.4363 203.193 16.3764C204.605 15.623 206.176 14.4949 206.798 12.9276C207.036 12.8254 207.271 12.7118 207.498 12.5831C209.159 11.6214 210.324 9.91789 210.522 7.97204C210.559 7.60104 210.548 7.23004 210.492 6.87042C210.756 5.35226 210.611 3.78503 209.639 2.50923C207.234 -0.648062 201.916 1.36973 201.116 4.94723C200.743 6.61674 201.41 8.47929 203.026 9.17217C203.696 9.45989 204.549 9.54317 205.23 9.22885C205.446 9.13047 205.658 8.92219 205.517 8.67234C205.409 8.48313 205.152 8.33166 204.992 8.19158C204.806 8.02885 204.612 7.87737 204.415 7.72219C203.789 6.73405 203.938 5.2842 204.955 4.53459C205.603 4.0576 206.474 3.87589 207.245 4.10682C207.963 4.3226 208.611 4.95106 208.961 5.60978C209.751 7.10134 209.524 8.81243 208.57 10.1716C207.751 11.3414 206.388 12.0985 205.007 12.3029C202.102 12.7344 199.511 10.4744 198.941 7.6503C198.52 5.57563 199.179 3.53895 200.434 1.9603C200.494 1.91487 200.546 1.85431 200.583 1.78616C201.283 0.953298 202.151 0.256722 203.111 -0.235418C204.586 -0.984996 206.317 -1.33706 207.96 -1.16671C209.509 -1.0077 211.073 -0.0877719 211.341 1.58173C211.441 2.21395 212.424 2.04358 212.413 1.43409C212.391 0.0977283 213.072 -1.14778 214.104 -1.95414C216.104 -3.51386 218.863 -2.90057 220.512 -1.1175C221.38 -0.17863 221.872 1.07444 222.002 2.35024C222.114 3.46702 221.95 4.55353 221.711 5.63627C221.183 4.45131 220.267 3.46324 219.068 2.95217L219.071 2.96352Z" fill="#08B4BE"/>
<path d="M198.565 9.8232C199.381 11.3868 200.777 12.6474 202.441 13.1925C203.212 13.4424 204.028 13.5143 204.832 13.4385C204.009 13.7831 203.153 14.0443 202.266 14.1844C200.386 14.4759 198.357 14.1693 196.744 13.1054C195.035 11.9773 194.074 10.0466 193.747 8.04392C193.449 6.21539 193.687 4.31122 194.357 2.59249C194.692 1.72556 195.143 0.904063 195.69 0.154486C196.23 -0.587506 196.893 -1.16294 197.53 -1.8103C198.401 -0.894158 199.031 0.169633 199.571 1.30913C197.727 3.7055 197.105 7.01049 198.573 9.8232H198.565Z" fill="#83CDCE"/>
<path d="M241.79 20.1392C239.906 20.5254 238.494 22.3691 238.554 24.3074C238.617 26.3327 239.995 28.184 241.801 28.9714C242.088 29.0962 242.382 29.1947 242.68 29.2703C241.41 29.4483 240.14 29.437 238.885 28.9638C237.943 28.6079 237.098 27.9908 236.547 27.1277C236.003 26.2721 235.75 25.2461 235.75 24.2316C235.75 22.2138 236.767 20.162 238.506 19.1323C240.23 18.1139 242.494 18.1934 243.979 19.613C244.437 20.0522 244.825 20.6617 245.052 21.3166C244.903 21.1197 244.732 20.9419 244.542 20.7866C243.756 20.1468 242.769 19.9348 241.79 20.1355V20.1392Z" fill="#045282"/>
<path d="M195.266 0.26793C194.655 1.16893 194.178 2.16836 193.854 3.21323C192.704 6.9194 193.523 11.7689 197.202 13.6807C199.924 15.0967 202.907 14.6272 205.528 13.3325C205.886 13.2606 206.24 13.1545 206.582 13.022C206.199 13.7035 205.715 14.3016 205.111 14.8202C204.258 15.551 203.279 16.1112 202.266 16.573C198.368 18.3524 193.769 18.4773 189.956 16.4027C188.179 15.4374 186.656 14.0328 185.599 12.2877C184.638 10.7052 184.132 8.95236 183.994 7.12012C185.442 8.17249 187.267 8.41108 188.92 7.64247C190.607 6.85505 191.613 5.07961 191.348 3.20565C191.225 2.33494 190.846 1.53236 190.198 0.937999C189.505 0.301999 188.578 -0.0538565 187.643 0.0975635C186.75 0.241423 186.016 0.941785 185.711 1.78978C185.409 2.63022 185.513 3.73944 186.221 4.34137C186.794 4.82592 187.718 5.00004 188.332 4.4928C188.861 4.05744 189.051 3.25108 188.582 2.70973C188.526 2.64536 188.444 2.72865 188.474 2.79301C188.887 3.74701 188.004 4.72752 187.04 4.39437C186.064 4.06122 185.826 2.79301 186.169 1.91851C186.552 0.941785 187.498 0.442071 188.481 0.839568C189.233 1.14243 189.706 1.75193 190.026 2.48636C190.577 3.76216 190.291 5.17044 189.27 6.10179C188.213 7.06703 186.649 7.31701 185.349 6.73773C183.923 6.1055 182.959 4.71994 182.702 3.18293C182.419 1.50586 182.992 -0.273439 184.039 -1.57193C186.184 -4.23331 189.971 -5.20246 193.188 -4.3696C194.741 -3.9683 196.159 -3.15816 197.314 -2.03001C197.332 -2.01108 197.351 -1.98836 197.373 -1.96944C196.528 -1.43186 195.828 -0.549797 195.273 0.271705L195.266 0.26793Z" fill="#045282"/>
<path d="M261.321 28.57C256.51 28.7101 252.079 30.8604 247.499 32.0984C245.164 32.7306 242.673 33.1962 240.26 32.8329C239.206 32.6738 238.178 32.3444 237.255 31.8031C236.458 31.3375 235.806 30.7242 235.203 30.039C235.113 28.0514 234.078 26.2002 232.529 24.9926C230.969 23.7735 228.966 23.3192 227.048 23.7433C226.027 23.5313 225.044 23.2094 224.114 22.6871C222.862 21.983 221.782 20.9948 221 19.7759C219.656 17.6747 219.269 15.0134 220.207 12.6662C221.146 10.3229 223.246 8.64582 225.759 8.50574C228.191 8.36949 230.459 9.76254 231.341 12.0946C231.755 13.1887 231.833 14.419 231.449 15.5358C231.319 15.9182 231.129 16.2626 230.898 16.558C231.542 15.3276 231.334 13.6316 230.161 12.6814C229.289 11.9773 228.105 11.8144 227.044 12.0946C226.057 12.3558 225.231 13.0069 224.646 13.8436C223.462 15.532 223.451 17.8678 224.575 19.5865C225.789 21.4377 227.953 22.4637 230.127 22.3084C233.17 22.0927 235.456 20.1317 236.838 17.5801C237.59 17.0728 238.401 16.6526 239.232 16.2968C240.978 15.5548 242.918 15.4109 244.739 15.9598C246.299 16.4292 247.759 17.4022 248.668 18.7916C249.573 20.1695 249.967 21.9186 249.699 23.5615C249.442 25.1516 248.601 26.5712 247.249 27.4381C246.009 28.2332 244.453 28.57 243.011 28.2218C241.496 27.8545 240.2 26.6848 239.776 25.144C239.358 23.6448 240.01 22.1117 241.403 21.434C242.017 21.1349 242.754 21.0592 243.388 21.3507C244.017 21.6384 244.572 22.2895 244.553 23.0239C244.534 23.7281 243.887 24.4096 243.19 24.4474C242.375 24.489 241.902 23.554 242.133 22.8384C242.166 22.7362 242.021 22.6833 241.969 22.7665C241.764 23.0846 241.716 23.4253 241.805 23.7924C242.006 24.6177 242.699 25.3068 243.551 25.3485C244.572 25.3976 245.413 24.4133 245.596 23.4631C245.685 22.9975 245.629 22.5281 245.473 22.0964C245.473 22.0738 245.473 22.051 245.473 22.0284C245.365 20.9419 244.758 19.9311 243.942 19.2383C242.311 17.8565 239.939 17.8641 238.182 19.0111C236.394 20.1734 235.393 22.3842 235.486 24.5118C235.534 25.5908 235.858 26.6696 236.499 27.5403C237.117 28.377 238.003 28.9563 238.967 29.2931C240.464 29.8156 242.051 29.7512 243.592 29.4332C243.994 29.4711 244.4 29.4711 244.806 29.4332C245.324 29.5128 245.849 29.5543 246.396 29.5543C247.431 29.5543 248.47 29.4938 249.491 29.3159C253.535 28.6118 257.508 27.1769 261.667 27.5366C263.79 27.7183 265.968 28.4906 267.596 29.8989C265.696 28.8578 263.47 28.5132 261.332 28.5739L261.321 28.57Z" fill="white"/>
<path d="M207.971 3.67509C206.508 3.15646 204.646 3.73188 203.964 5.2197C203.406 6.44631 203.976 8.08921 205.212 8.61552C205.316 8.72145 205.387 8.83889 205.331 8.93727C205.242 9.08874 204.847 9.14925 204.691 9.17957C204.478 9.21744 204.259 9.22499 204.043 9.20606C203.197 9.13787 202.382 8.67603 201.883 7.97945C200.941 6.662 201.116 4.84486 201.987 3.54638C202.892 2.19866 204.49 1.27873 206.091 1.18031C207.83 1.0743 209.364 2.03588 210.042 3.66374C210.41 4.55338 210.5 5.49987 210.414 6.44247C210.094 5.19322 209.234 4.12182 207.975 3.67509H207.971Z" fill="#83CDCE"/>
<path d="M169.058 13.9723C169.375 14.207 169.673 14.472 169.952 14.7786C171.3 16.2777 171.94 18.3447 171.512 20.3475C171.203 21.7936 170.399 23.0845 169.293 24.0158C169.866 22.6984 169.952 21.1689 169.226 19.8855C168.76 19.0641 167.978 18.4015 167.088 18.0457C166.835 17.8564 166.571 17.6898 166.303 17.5536C163.759 16.2665 160.68 17.6179 159.596 20.2339C158.997 21.6837 159.213 23.3911 160.006 24.7275C159.086 23.8075 158.52 22.5318 158.353 21.2408C158.133 19.5827 158.535 17.8792 159.481 16.5086C160.423 15.1458 161.875 14.1653 163.432 13.6807C165.074 13.1697 166.813 13.2303 168.44 13.764C168.645 13.8322 168.854 13.8965 169.062 13.9684L169.058 13.9723Z" fill="#5A91A5"/>
<path d="M189.665 33.9155C189.665 33.9306 189.665 33.9419 189.661 33.957C189.661 33.9495 189.661 33.9306 189.661 33.9192L189.665 33.9155Z" fill="#83CDCE"/>
<path d="M221.269 24.6784C222.103 24.8752 222.885 25.2236 223.615 25.6702C223.038 26.2646 222.568 26.965 222.248 27.7486C221.902 28.5967 221.727 29.5279 221.734 30.4631C221.354 30.0807 220.807 29.8119 220.342 29.5885C219.813 29.3348 219.254 29.1304 218.685 29.0017C218.093 28.8691 217.489 28.8011 216.882 28.8011C216.555 28.8011 216.201 28.82 215.854 28.8691C216.421 28.3543 216.938 27.7827 217.392 27.143C217.958 26.3442 218.405 25.4582 218.718 24.527C219.578 24.4853 220.412 24.4739 221.269 24.6746V24.6784Z" fill="#08B4BE"/>
<path d="M184.125 27.3889C186.076 25.7004 188.738 24.8373 191.285 25.284C193.71 25.7118 195.806 27.3245 196.67 29.7019C197.496 31.9772 197.005 34.4341 195.188 36.0506C193.508 37.5459 190.853 37.9662 189.07 36.3989C188.221 35.6493 187.733 34.5477 187.975 33.4005C188.198 32.3557 188.962 31.4775 190.064 31.4661C190.946 31.4547 191.978 32.0075 192.034 32.9993C192.086 33.9533 191.285 34.8884 190.328 34.7862C190.272 34.7786 190.224 34.7862 190.176 34.7937C190.131 34.7672 190.086 34.7446 190.042 34.718C190.03 34.7104 189.993 34.6839 189.971 34.6688C189.952 34.6499 189.907 34.612 189.893 34.5968C189.859 34.5666 189.833 34.5288 189.803 34.4984C189.792 34.4795 189.777 34.4569 189.762 34.4379C189.74 34.4038 189.725 34.3659 189.703 34.328C189.695 34.3091 189.688 34.2903 189.68 34.2675C189.669 34.2372 189.662 34.2032 189.654 34.1691C189.654 34.1691 189.643 34.1199 189.643 34.082C189.643 34.0403 189.643 33.9987 189.643 33.957C189.643 33.957 189.643 33.9533 189.643 33.9495C189.643 33.9609 189.643 33.957 189.647 33.9079C189.669 33.8132 189.692 33.7224 189.718 33.6316C189.725 33.6088 189.74 33.5709 189.744 33.5672C189.759 33.5331 189.777 33.499 189.796 33.465C189.818 33.4233 189.841 33.3817 189.867 33.3439C189.867 33.3439 189.881 33.3211 189.885 33.3135C189.893 33.3022 189.904 33.2908 189.911 33.2795C189.971 33.2038 189.963 33.1885 190.034 33.1545C190.198 33.0751 190.377 33.0144 190.559 33.0485C190.764 33.0863 190.98 33.2416 191.04 33.4498C191.051 33.4838 191.099 33.4687 191.092 33.4347C191.036 33.1242 190.883 32.9008 190.619 32.7343C190.492 32.6548 190.347 32.5942 190.205 32.564C190.034 32.5261 189.889 32.564 189.721 32.6094C189.431 32.6851 189.178 32.81 188.977 33.0485C188.742 33.3286 188.615 33.6505 188.586 34.0177C188.53 34.718 188.973 35.3767 189.561 35.7061C190.172 36.0506 190.947 36.0961 191.568 35.7591C191.755 35.6569 191.907 35.5092 192.034 35.3388C192.399 35.036 192.697 34.6385 192.883 34.1956C193.348 33.0977 193.091 31.8522 192.172 31.0875C191.311 30.372 190.049 30.1411 189.003 30.5386C188.511 30.7241 188.094 31.0383 187.755 31.4245C186.731 31.8295 185.815 32.5298 185.167 33.4195C184.061 34.9376 183.726 36.9857 184.311 38.7801C185.368 42.0169 188.697 43.7395 191.889 43.7924C195.899 43.8568 199.485 41.7859 202.866 39.8363C206.363 37.8224 209.971 35.9067 213.911 34.9678C215.78 34.5212 217.716 34.2865 219.634 34.4681C220.725 34.5703 221.783 34.8202 222.81 35.1761C217.724 34.2751 212.794 36.5503 208.616 39.488C203.883 42.812 199.474 47.0822 193.672 48.3353C191.062 48.8993 188.295 48.7214 185.908 47.4381C183.771 46.2872 182.054 44.4247 181.019 42.2062C178.733 37.3074 180.047 30.8982 184.113 27.3813L184.125 27.3889Z" fill="#045282"/>
<path d="M161.998 27.7713C161.998 27.7713 162.005 27.7713 162.009 27.7713C162.605 27.6804 163.193 27.5668 163.774 27.4192C164.754 27.4457 165.737 27.2488 166.619 26.8248C167.111 26.7983 167.602 26.787 168.098 26.7983C171.922 26.8627 175.69 27.8584 179.529 27.669C180.594 27.6161 181.663 27.4722 182.698 27.1997C181.056 28.8615 179.913 31.0232 179.321 33.3363C178.55 33.8398 177.578 34.0632 176.684 34.173C174.931 34.3925 173.147 34.2903 171.408 33.9912C165.171 32.916 159.656 29.3764 153.43 28.2596C150.644 27.7599 147.74 27.7637 145.055 28.748C144.943 28.7896 144.835 28.8313 144.724 28.8767C147.677 27.4154 151.091 27.3813 154.338 27.6009C156.304 27.7334 158.3 28.0551 160.274 27.9529C160.851 27.9227 161.425 27.8621 161.991 27.7751C161.991 27.7751 161.994 27.7751 161.998 27.7751V27.7713Z" fill="#08B4BE"/>
<path d="M149.285 30.2774C152.056 30.2622 154.823 30.762 157.399 31.7993C160.129 32.8934 162.605 34.5326 165.171 35.9559C167.651 37.3265 170.317 38.5152 173.158 38.7498C175.02 38.905 177.545 38.6893 178.841 37.1334C178.841 37.8716 178.9 38.6061 179.016 39.3216C179.068 39.6358 179.131 39.9461 179.202 40.2528C177.69 41.3998 175.839 41.9602 173.981 42.1949C171.874 42.4599 169.721 42.3577 167.655 41.873C166.333 41.5627 165.011 41.1273 163.815 40.4686C162.922 39.9765 162.058 39.4313 161.194 38.8899C158.922 37.4552 156.684 35.9749 154.409 34.5477C152.35 33.2568 150.254 31.9052 147.881 31.2958C146.615 30.9702 145.256 30.8339 143.949 30.9702C145.692 30.5273 147.483 30.285 149.282 30.2774H149.285Z" fill="#08B4BE"/>
<path d="M164.672 32.231C167.572 33.3212 170.57 34.2601 173.676 34.4418C175.065 34.5213 176.52 34.4872 177.876 34.1314C178.36 34.0027 178.84 33.8134 179.265 33.5446C179 34.6462 178.859 35.782 178.848 36.9064C178.14 37.7581 177.057 38.2124 175.981 38.4244C174.376 38.7424 172.7 38.5947 171.121 38.2161C165.498 36.8685 161.127 32.6132 155.627 30.9286C151.005 29.5128 145.896 29.6983 141.413 31.5305C141.864 30.94 142.392 30.4138 142.977 29.9557C144.094 29.2705 145.33 28.7745 146.623 28.4831C152.864 27.071 158.971 30.0807 164.675 32.2271L164.672 32.231Z" fill="#83CDCE"/>
<path d="M269.61 32.4277C267.45 30.7317 264.613 30.9134 262.178 31.8598C259.463 32.9123 257.337 35.0247 255.218 36.9706C253.025 38.9884 250.757 40.8245 247.972 41.9223C245.276 42.9823 242.3 43.3723 239.429 43.0316C236.555 42.6908 233.955 41.5702 231.42 40.196C228.925 38.8445 226.474 37.2962 223.723 36.5238C217.455 34.7635 211.688 38.5114 206.865 42.1532C202.017 45.814 196.718 50.0389 190.321 49.7551C185.316 49.5317 181.086 46.0147 179.514 41.3204C178.327 42.2403 176.871 42.7665 175.415 43.0693C173.579 43.4517 171.68 43.5426 169.814 43.3495C167.878 43.1489 165.99 42.6606 164.199 41.8844C163.432 41.5513 162.713 41.1198 162.002 40.6881C159.797 39.3481 157.649 37.917 155.478 36.5277C154.375 35.8235 153.273 35.127 152.152 34.4568C151.27 33.9307 150.38 33.3968 149.434 32.9881C146.511 31.7197 142.538 31.3715 140.136 33.8852C139.767 34.2676 139.049 33.8777 139.227 33.3477C140.326 30.039 143.383 27.8508 146.604 26.98C150.73 25.8594 155.02 26.6393 159.205 26.8551C159.98 26.8967 160.747 26.9346 161.518 26.9649C160.24 26.4766 159.127 25.621 158.36 24.4322C157.272 22.7438 156.975 20.5974 157.388 18.6438C157.816 16.6147 159.093 14.8884 160.78 13.7489C162.497 12.5868 164.638 12.0454 166.69 12.2801C166.764 12.2877 166.835 12.3028 166.91 12.3142C166.91 12.2535 166.91 12.1968 166.91 12.14C166.902 11.7652 166.921 11.3867 166.958 11.0157C167.036 10.2887 167.174 9.57322 167.397 8.87676C168.317 6.00329 170.47 3.60697 173.273 2.56212C174.86 1.96776 176.588 1.84283 178.252 2.10026C179.101 2.23276 179.92 2.48641 180.706 2.83847C181.071 3.00125 181.425 3.19433 181.752 3.42904C181.644 2.80441 181.629 2.16083 181.708 1.52483C182.24 -2.81362 186.463 -5.58477 190.514 -5.74755C194.499 -5.90656 198.479 -3.57077 200.159 0.150602C200.207 0.260393 200.256 0.370184 200.3 0.479963C200.594 0.180897 200.911 -0.099249 201.246 -0.352899C202.814 -1.53026 204.754 -2.17004 206.69 -2.27983C208.519 -2.38204 210.503 -1.8899 211.654 -0.379394C212.436 -2.45776 214.532 -3.97584 216.767 -3.95312C219.835 -3.92283 222.393 -1.47347 222.97 1.51726C223.093 2.16083 223.16 2.84605 223.138 3.52748C223.816 2.8309 224.62 2.24412 225.495 1.83147C227.431 0.915326 229.614 0.797962 231.639 1.5059C233.672 2.21762 235.43 3.62969 236.618 5.44678C237.917 7.43817 238.469 9.9102 238.335 12.2838C238.264 13.5408 237.996 14.8279 237.541 16.0393C237.869 15.8047 238.215 15.5925 238.58 15.4184C240.479 14.5288 242.591 14.2828 244.631 14.79C246.612 15.2822 248.433 16.4709 249.584 18.1972C250.731 19.9197 251.122 22.1419 250.697 24.171C250.306 26.0299 249.152 27.635 247.525 28.5625C248.057 28.4792 248.59 28.377 249.122 28.2823C251.215 27.9075 253.267 27.3359 255.356 26.927C259.091 26.1964 263.06 25.9731 266.527 27.8394C268.14 28.7063 269.528 30.0124 270.358 31.6782C270.579 32.1172 270.083 32.8063 269.613 32.4353L269.61 32.4277ZM232.499 34.9036C233.218 35.6267 234.004 36.2475 234.931 36.7018C236.052 37.2545 237.281 37.5688 238.521 37.6861C241.317 37.9473 244.069 37.141 246.594 35.9787C251.673 33.6468 256.294 29.6982 262.025 29.1681C263.525 29.0282 265.059 29.1417 266.49 29.577C264.934 29.013 263.288 28.7594 261.619 28.7859C259.18 28.8238 256.789 29.4181 254.47 30.1449C252.146 30.8718 249.863 31.7462 247.514 32.386C245.242 33.007 242.833 33.465 240.476 33.1622C238.565 32.916 236.354 32.0643 235.207 30.3797C235.207 30.41 235.207 30.4402 235.207 30.4743C235.158 32.3785 234.149 34.1388 232.499 34.9074V34.9036ZM238.774 41.8201C241.414 42.263 244.166 42.0245 246.709 41.1955C249.331 40.3399 251.539 38.7953 253.587 36.9592C255.613 35.1459 257.542 33.128 259.895 31.7539C262.014 30.5159 264.55 29.7739 267 30.1335C267.279 30.1752 267.551 30.232 267.823 30.3078C266.121 29.5391 264.2 29.2856 262.345 29.4218C259.482 29.6338 256.786 30.7999 254.268 32.14C249.431 34.7181 244.471 38.4357 238.722 37.9928C236.383 37.811 233.777 36.9138 232.242 35.0058C231.945 35.1231 231.628 35.2102 231.289 35.2595C229.088 35.5737 226.88 34.0821 226.62 31.7804C226.501 30.7166 226.824 29.6224 227.558 28.8464C228.254 28.1119 229.275 27.6615 230.284 27.7977C231.211 27.9227 232.004 28.5208 232.317 29.4294C232.6 30.2585 232.388 31.1936 231.662 31.6971C230.984 32.1665 229.979 32.1968 229.42 31.523C229.144 31.1897 229.022 30.7166 229.208 30.3078C229.372 29.948 229.748 29.6717 230.153 29.7625C230.518 29.8458 230.783 30.1752 230.764 30.5538C230.753 30.762 230.444 30.762 230.448 30.5538C230.451 30.2585 230.172 30.0351 229.889 30.1298C229.602 30.2282 229.476 30.5689 229.532 30.849C229.617 31.2919 230.042 31.6024 230.463 31.6743C231.293 31.8183 232.075 31.1481 232.149 30.3153C232.228 29.3992 231.602 28.5815 230.753 28.3353C229.893 28.0818 228.902 28.3278 228.239 28.9372C226.892 30.1789 227.033 32.2725 228.392 33.4499C229.655 34.544 231.602 34.4721 232.853 33.3893C234.183 32.2422 234.376 30.2736 233.862 28.6684C233.401 27.2148 232.351 25.958 231.036 25.2197C228.206 23.6334 224.33 25.072 223.112 28.0968C222.416 29.8269 222.531 31.8295 223.425 33.4574C223.939 34.3963 224.709 35.1875 225.48 35.9068C225.499 35.9219 225.514 35.9409 225.532 35.9561C230.057 37.6823 233.903 41.0023 238.774 41.8164V41.8201ZM229.736 17.7277C229.591 17.8035 229.439 17.8678 229.271 17.9171C229.036 17.9851 228.828 17.9246 228.597 17.8678C228.355 17.811 228.113 17.7656 227.878 17.6748C227.796 17.6444 227.815 17.5347 227.897 17.5233C228.132 17.4968 228.377 17.4514 228.564 17.2924C228.638 17.2319 228.686 17.1523 228.761 17.0918C228.865 17.0122 228.999 16.9631 229.111 16.8949C229.465 16.6754 229.777 16.3876 229.982 16.0166C230.366 15.3162 230.224 14.3622 229.714 13.7641C228.53 12.3785 226.37 13.2076 225.514 14.5174C224.575 15.9484 224.635 17.7542 225.607 19.1435C226.664 20.6579 228.519 21.3545 230.299 21.1803C231.323 21.0781 232.246 20.7374 233.058 20.2225C234.689 18.0305 235.307 15.0513 234.656 12.3861C233.84 9.05088 231.025 6.43493 227.785 5.59455C226.832 5.34841 225.83 5.25003 224.847 5.32192C223.991 5.38627 223.246 5.63996 222.564 6.09041C222.542 6.11689 222.524 6.14721 222.501 6.17369C222.419 6.32887 222.334 6.48035 222.237 6.62798C222.002 6.9725 221.455 6.76806 221.559 6.33642C221.567 6.31378 221.57 6.29101 221.574 6.26452C221.306 6.10934 221.027 5.98819 220.703 5.93894C220.196 5.86333 219.679 5.92384 219.198 6.09425C218.293 6.416 217.497 7.07843 216.886 7.82043C215.657 9.31966 215.154 11.3337 215.571 13.2417C215.746 14.0442 216.078 14.8165 216.517 15.5131C217.802 16.7132 218.725 18.3259 219.061 20.0635C219.332 21.487 219.213 22.9407 218.789 24.3074C219.623 24.171 220.52 24.2809 221.321 24.4777C222.177 24.6896 222.985 25.0606 223.7 25.5831C224.464 24.826 225.398 24.2467 226.426 23.9136C224.37 23.4025 222.445 22.1608 221.179 20.4876C219.574 18.3638 218.956 15.5131 219.831 12.9501C220.68 10.4592 222.781 8.57382 225.387 8.26346C227.945 7.95681 230.433 9.2855 231.487 11.7009C232.041 12.9729 232.168 14.4606 231.662 15.7705C231.334 16.6186 230.604 17.4476 229.733 17.7277H229.736ZM212.671 13.5445C213.452 13.6846 214.216 13.9534 214.916 14.3394C215.277 14.5402 215.623 14.7711 215.955 15.0285C215.218 13.6656 214.979 12.0303 215.303 10.5007C215.724 8.50192 217.143 6.54853 219.068 5.82163C219.757 5.56039 220.997 5.44678 221.641 6.00329C221.641 5.99574 221.641 5.99203 221.645 5.98435C221.183 4.93199 220.453 4.01204 219.448 3.44798C218.204 2.7514 216.715 2.68325 215.37 3.0959C212.455 3.98934 210.719 6.9876 210.906 10.0087C210.961 10.9173 211.192 11.8448 211.706 12.6019C211.971 12.988 212.298 13.2985 212.671 13.5408V13.5445ZM177.891 16.8002C178.446 15.2443 180.17 14.3963 181.734 14.6954C180.501 13.8928 178.96 13.6164 177.504 14.1616C176.148 14.6727 175.001 15.797 174.495 17.1788C173.94 18.6931 174.204 20.7185 175.91 21.2863C176.74 21.5627 177.582 21.4264 178.379 21.1197C178.974 20.8926 179.44 20.5443 179.909 20.1543C179.202 20.1278 178.516 19.8061 178.107 19.1928C177.649 18.5076 177.615 17.5687 177.887 16.8041L177.891 16.8002ZM183.845 19.0073C183.782 18.9733 183.73 18.9165 183.715 18.8483C183.655 18.5644 183.685 18.3032 183.674 18.0154C183.663 17.7163 183.596 17.4174 183.491 17.1372C183.298 16.611 182.94 16.115 182.486 15.7894C181.536 15.1156 180.233 15.2405 179.336 15.9446C178.464 16.6299 177.947 18.1252 178.796 19.0452C179.738 20.071 181.965 19.5412 181.838 17.9511C181.775 17.1751 180.888 16.5768 180.211 17.0576C179.909 17.2697 179.73 17.6558 179.861 18.023C179.987 18.3789 180.326 18.5833 180.676 18.6515C180.799 18.6742 180.784 18.8597 180.676 18.89C179.917 19.1134 179.276 18.2426 179.421 17.5271C179.578 16.7586 180.434 16.2891 181.157 16.5314C181.954 16.8002 182.367 17.6558 182.203 18.4697C182.024 19.3518 181.265 19.9878 180.404 20.1241C180.352 20.1317 180.3 20.1355 180.248 20.1392C179.339 21.1993 177.775 21.8391 176.424 21.6536C175.657 21.5475 174.942 21.169 174.495 20.5141C174.018 19.8136 173.906 18.9089 174.018 18.0798C174.23 16.486 175.262 15.0815 176.617 14.2828C177.999 13.4687 179.645 13.3628 181.101 14.0291C181.596 14.2562 182.054 14.5591 182.452 14.9263C183.045 15.2064 183.547 15.6797 183.886 16.2437C183.361 13.8966 182.009 11.7463 180.062 10.3569C177.559 8.57382 174.216 8.2142 171.367 9.30073C170.555 9.61109 169.755 10.0389 169.095 10.6219C168.548 11.1065 168.179 11.6593 167.948 12.3255C167.948 12.3861 167.952 12.4504 167.956 12.511C168.57 12.6662 169.166 12.8782 169.736 13.1698C170.231 13.4233 170.63 13.7831 171.069 14.1162C171.475 14.4229 171.862 14.7786 172.208 15.1535C172.566 15.5396 172.908 15.9523 173.229 16.3724C173.262 16.4178 173.206 16.4822 173.165 16.4368C172.506 15.7479 171.762 15.2368 170.946 14.7673C170.551 14.5402 170.123 14.3547 169.684 14.1918C170.499 14.9263 171.147 15.8727 171.516 16.8495C172.283 18.8672 171.918 21.1425 170.685 22.8877C170.231 23.5312 169.684 24.0765 169.054 24.5041C168.857 24.8639 168.622 25.2046 168.358 25.5074C167.993 25.9276 167.569 26.2683 167.103 26.5523C168.861 26.5031 170.641 26.6886 172.357 26.8967C175.899 27.3245 179.574 27.881 183.067 26.84C183.912 26.0602 184.877 25.4052 185.957 24.9244C186.02 24.8979 186.087 24.8714 186.15 24.845C186.779 24.0234 187.263 23.0922 187.546 22.1078C187.859 21.0252 187.811 19.8023 186.984 18.9619C186.37 18.341 185.197 18.1669 184.612 18.9392C184.404 19.2156 184.043 19.1852 183.845 19.0111V19.0073ZM160.866 25.4165C162.032 26.1547 163.465 26.4803 164.821 26.2457C166.388 25.9769 167.759 24.9661 168.362 23.4479C168.924 22.0321 168.675 20.374 167.394 19.4616C166.779 19.0262 165.99 18.765 165.238 18.924C164.448 19.0906 163.733 19.7304 163.599 20.5595C163.461 21.4151 164.128 22.1382 164.943 22.2441C165.848 22.3614 166.332 21.2447 165.975 20.5102C165.934 20.4231 166.046 20.3172 166.116 20.4005C166.627 20.991 166.455 21.8505 166.035 22.4485C165.465 23.2549 164.411 23.4442 163.599 22.8763C162.732 22.2706 162.326 21.2107 162.571 20.1696C162.813 19.1474 163.618 18.3259 164.575 17.9662C165.111 17.7656 165.677 17.724 166.228 17.811C165.193 17.2999 164.001 17.1637 162.888 17.5157C160.367 18.3221 158.863 21.1386 159.794 23.6902C160.032 24.3414 160.404 24.9206 160.866 25.4165ZM187.472 24.3907C189.684 23.8114 192.097 23.9932 194.126 25.1099C195.191 25.6967 196.096 26.5485 196.781 27.5554C197.023 27.6994 197.269 27.8432 197.511 27.9908C198.494 28.5815 199.485 29.1304 200.546 29.5619C202.676 30.4212 204.966 30.9286 207.26 30.9172C209.528 30.9058 211.825 30.3872 213.773 29.1681C215.508 28.0818 216.927 26.3819 217.642 24.4398C218.353 22.5092 218.368 20.3626 217.467 18.4925C216.588 16.6677 214.987 15.1535 213.058 14.5628C212.172 14.2903 211.211 14.2032 210.314 14.3584C211.87 14.3661 213.438 15.0702 214.343 16.3649C215.743 18.3675 215.318 21.2522 213.81 23.0618C212.123 25.0873 209.368 25.8633 206.839 25.7194C203.745 25.5415 200.889 24.171 198.126 22.8649C196.513 22.104 194.89 21.3431 193.177 20.832C192.298 20.5709 191.401 20.3702 190.492 20.2718C189.885 20.2074 189.278 20.1999 188.667 20.2188C188.891 21.6762 188.343 23.1792 187.472 24.3944V24.3907ZM196.037 36.7661C196.8 36.8911 197.56 36.9555 198.353 36.8948C199.429 36.8154 200.487 36.5731 201.514 36.2475C203.525 35.6077 205.406 34.6234 207.349 33.8057C211.084 32.2308 215.381 31.451 219.392 32.265C220.457 32.4807 221.529 32.8782 222.445 33.4878C221.998 32.6171 221.768 31.6328 221.738 30.6409C221.258 30.3948 220.829 30.0465 220.338 29.8118C219.79 29.5505 219.213 29.3613 218.625 29.2288C218.036 29.0963 217.433 29.0319 216.83 29.0357C216.391 29.0394 215.962 29.1115 215.53 29.1606C214.253 30.2357 212.745 31.0156 211.118 31.4699C208.496 32.2044 205.67 32.1172 203.041 31.4699C201.179 31.0119 199.302 30.2547 197.645 29.1985C197.921 29.9064 198.096 30.6484 198.155 31.4094C198.316 33.4499 197.485 35.4147 196.037 36.7661ZM186.891 33.287C186.977 32.7759 187.167 32.2876 187.442 31.8561C186.642 32.2384 185.934 32.8026 185.39 33.5483C184.355 34.9755 184.016 36.8759 184.53 38.5719C184.992 40.1052 186.091 41.3886 187.405 42.2441C188.924 43.2322 190.73 43.6069 192.518 43.5388C196.457 43.3912 199.92 41.2825 203.268 39.3783C206.586 37.4931 210.03 35.7289 213.75 34.8278C215.672 34.3622 217.668 34.1162 219.641 34.3055C221.041 34.4379 222.397 34.8014 223.678 35.3617C223.771 35.3844 223.868 35.4108 223.961 35.4336C223.488 34.9907 223.052 34.5061 222.699 33.942C222.687 33.9231 222.68 33.9079 222.669 33.889C220.084 32.0189 216.324 31.9924 213.289 32.3899C211.211 32.6625 209.215 33.2606 207.286 34.0783C205.387 34.8846 203.54 35.8386 201.574 36.4709C200.527 36.8078 199.448 37.0502 198.349 37.1334C197.511 37.1978 196.614 37.1826 195.776 36.9857C195.467 37.2469 195.139 37.4817 194.785 37.6861C192.585 38.9429 189.617 38.7763 187.885 36.7661C187.051 35.7971 186.675 34.5591 186.887 33.2833L186.891 33.287ZM217.389 27.1429C216.938 27.7826 216.417 28.3542 215.851 28.8692C216.197 28.8161 216.551 28.801 216.878 28.801C217.485 28.801 218.089 28.8692 218.681 29.0016C219.254 29.1304 219.809 29.331 220.338 29.5884C220.799 29.8118 221.351 30.0806 221.73 30.4629C221.727 29.5279 221.898 28.5965 222.244 27.7486C222.564 26.9649 223.034 26.2646 223.611 25.6702C222.881 25.2235 222.099 24.8751 221.265 24.6784C220.409 24.4739 219.571 24.489 218.714 24.5307C218.401 25.462 217.951 26.3479 217.389 27.1466V27.1429ZM185.923 47.4419C188.306 48.7253 191.077 48.9032 193.687 48.3391C199.489 47.0823 203.897 42.8158 208.63 39.4919C212.808 36.558 217.739 34.2789 222.825 35.1799C221.798 34.8241 220.74 34.5743 219.649 34.4721C217.731 34.2941 215.795 34.525 213.926 34.9718C209.986 35.9105 206.377 37.8262 202.881 39.8402C199.5 41.7898 195.914 43.8569 191.903 43.7962C188.712 43.747 185.383 42.0208 184.326 38.784C183.741 36.9895 184.076 34.9415 185.182 33.4234C185.83 32.5299 186.746 31.8333 187.77 31.4283C188.109 31.0421 188.526 30.7279 189.017 30.5424C190.067 30.1449 191.326 30.3758 192.186 31.0913C193.106 31.8561 193.363 33.1015 192.898 34.1994C192.711 34.6423 192.417 35.0398 192.049 35.3428C191.922 35.513 191.773 35.6607 191.583 35.7629C190.961 36.0999 190.187 36.0545 189.576 35.7099C188.991 35.3768 188.544 34.7219 188.6 34.0215C188.63 33.6543 188.757 33.3325 188.991 33.0524C189.192 32.8138 189.446 32.6927 189.736 32.6132C189.904 32.5678 190.049 32.5261 190.22 32.5678C190.365 32.6018 190.511 32.6586 190.633 32.7382C190.898 32.9048 191.054 33.128 191.106 33.4385C191.114 33.4725 191.062 33.4878 191.054 33.4536C190.991 33.2455 190.779 33.0903 190.574 33.0524C190.392 33.0183 190.213 33.0789 190.049 33.1583C189.978 33.1925 189.986 33.2076 189.926 33.2833C189.918 33.2947 189.907 33.306 189.9 33.3174C189.896 33.3249 189.881 33.3438 189.881 33.3477C189.855 33.3893 189.833 33.4271 189.811 33.4688C189.792 33.5029 189.777 33.5369 189.758 33.571C189.758 33.571 189.74 33.6165 189.732 33.6354C189.703 33.7262 189.68 33.8209 189.662 33.9117C189.662 33.9079 189.662 33.9042 189.662 33.9003C189.662 33.9042 189.662 33.9117 189.662 33.9156C189.662 33.9268 189.662 33.9458 189.662 33.9533C189.662 33.9533 189.662 33.9571 189.662 33.961C189.662 34.0026 189.658 34.0443 189.662 34.0858C189.662 34.1237 189.673 34.173 189.673 34.173C189.68 34.207 189.688 34.2373 189.699 34.2713C189.706 34.2903 189.714 34.3092 189.721 34.332C189.74 34.366 189.758 34.4039 189.781 34.4417C189.792 34.4607 189.807 34.4833 189.822 34.5023C189.852 34.5364 189.881 34.5704 189.911 34.6008C189.926 34.612 189.971 34.6537 189.989 34.6727C190.008 34.6878 190.049 34.7142 190.06 34.7219C190.105 34.7484 190.149 34.7749 190.194 34.7975C190.243 34.79 190.291 34.7863 190.347 34.79C191.307 34.8922 192.104 33.9571 192.052 33.0032C191.996 32.0113 190.965 31.4586 190.082 31.4699C188.98 31.4813 188.217 32.3595 187.993 33.4045C187.748 34.5515 188.235 35.6531 189.088 36.4027C190.872 37.97 193.527 37.5499 195.206 36.0545C197.023 34.4342 197.515 31.981 196.688 29.7058C195.824 27.3284 193.728 25.7157 191.304 25.2879C188.757 24.8411 186.094 25.7043 184.143 27.3927C180.077 30.9097 178.762 37.3189 181.049 42.2176C182.084 44.436 183.804 46.2986 185.938 47.4495L185.923 47.4419ZM142.973 29.9594C142.389 30.4137 141.86 30.9437 141.409 31.5342C145.893 29.702 151.002 29.5165 155.623 30.9323C161.123 32.6171 165.495 36.8722 171.117 38.2198C172.696 38.5985 174.376 38.7423 175.977 38.4281C177.049 38.2161 178.137 37.7618 178.844 36.9101C178.855 35.7818 178.997 34.6499 179.261 33.5483C178.837 33.8171 178.356 34.0064 177.872 34.1351C176.521 34.491 175.061 34.525 173.672 34.4455C170.566 34.2638 167.569 33.3249 164.668 32.2347C158.963 30.0881 152.856 27.0785 146.615 28.4906C145.323 28.782 144.087 29.278 142.97 29.9632L142.973 29.9594ZM147.885 31.2919C150.257 31.8977 152.35 33.253 154.413 34.544C156.688 35.9673 158.93 37.4513 161.197 38.8862C162.061 39.4313 162.925 39.9765 163.819 40.4648C165.018 41.1235 166.336 41.5589 167.658 41.8693C169.728 42.3539 171.877 42.4562 173.985 42.1911C175.843 41.9563 177.694 41.3998 179.205 40.2491C179.131 39.9424 179.068 39.6319 179.019 39.3177C178.904 38.5985 178.844 37.8641 178.844 37.1296C177.548 38.6893 175.024 38.9013 173.162 38.7461C170.317 38.5114 167.651 37.3226 165.174 35.9522C162.605 34.5326 160.132 32.8934 157.403 31.7955C154.826 30.762 152.056 30.2622 149.289 30.2736C147.49 30.2812 145.699 30.5235 143.956 30.9665C145.267 30.8301 146.623 30.9665 147.889 31.2919H147.885ZM154.334 27.5933C151.087 27.3738 147.669 27.4078 144.72 28.8692C144.832 28.8238 144.94 28.782 145.051 28.7405C147.736 27.7523 150.641 27.7523 153.426 28.252C159.652 29.3689 165.167 32.9085 171.404 33.9836C173.143 34.2827 174.927 34.3849 176.681 34.1654C177.574 34.0555 178.546 33.8323 179.317 33.3287C179.909 31.0156 181.052 28.8502 182.694 27.1921C181.659 27.4646 180.591 27.6122 179.526 27.6615C175.69 27.847 171.922 26.8551 168.094 26.7908C167.598 26.7832 167.107 26.7908 166.615 26.8173C165.737 27.2412 164.75 27.4381 163.77 27.4116C163.19 27.5593 162.598 27.6766 162.005 27.7637C162.005 27.7637 161.998 27.7637 161.994 27.7637C161.994 27.7637 161.99 27.7637 161.987 27.7637C161.417 27.847 160.847 27.9113 160.27 27.9417C158.297 28.0439 156.301 27.722 154.334 27.5896V27.5933ZM163.424 13.6846C161.868 14.1692 160.415 15.1496 159.473 16.5125C158.527 17.8829 158.129 19.5866 158.345 21.2447C158.516 22.5357 159.078 23.8114 159.998 24.7313C159.205 23.395 158.989 21.6876 159.589 20.2376C160.672 17.6218 163.748 16.2665 166.295 17.5574C166.56 17.6937 166.824 17.8564 167.081 18.0495C167.971 18.4015 168.753 19.0679 169.218 19.8894C169.944 21.1728 169.859 22.7022 169.285 24.0197C170.395 23.0883 171.196 21.7936 171.505 20.3512C171.937 18.3524 171.296 16.2816 169.944 14.7825C169.669 14.4758 169.367 14.2107 169.051 13.9761C168.842 13.9079 168.634 13.8397 168.429 13.7717C166.802 13.2378 165.059 13.1773 163.42 13.6884L163.424 13.6846ZM193.184 -4.37333C189.967 -5.20619 186.18 -4.24083 184.035 -1.57568C182.989 -0.277176 182.415 1.5059 182.698 3.17919C182.955 4.71619 183.923 6.1018 185.346 6.73403C186.645 7.31318 188.209 7.06333 189.267 6.09796C190.287 5.16674 190.57 3.75841 190.023 2.48262C189.706 1.74819 189.233 1.13868 188.477 0.83583C187.494 0.438321 186.545 0.938034 186.165 1.91475C185.822 2.78926 186.057 4.05747 187.036 4.39062C188.005 4.71998 188.883 3.73947 188.47 2.78926C188.44 2.72112 188.522 2.64161 188.578 2.70597C189.047 3.24733 188.857 4.0537 188.329 4.48905C187.714 4.99634 186.791 4.82222 186.217 4.33762C185.506 3.7357 185.402 2.62648 185.707 1.78604C186.012 0.934248 186.746 0.237685 187.64 0.0938258C188.574 -0.057607 189.501 0.298248 190.194 0.934248C190.842 1.52861 191.222 2.33119 191.345 3.2019C191.609 5.07578 190.604 6.85135 188.917 7.63877C187.267 8.41109 185.443 8.16879 183.99 7.11629C184.128 8.94866 184.635 10.7015 185.595 12.2838C186.657 14.0291 188.176 15.4336 189.952 16.3989C193.765 18.4736 198.364 18.3486 202.263 16.5693C203.276 16.1075 204.255 15.5471 205.108 14.8165C205.715 14.2979 206.199 13.696 206.579 13.0183C206.236 13.1508 205.886 13.2568 205.525 13.3287C202.903 14.6235 199.917 15.0891 197.198 13.677C193.523 11.7652 192.7 6.9157 193.851 3.20948C194.175 2.16462 194.651 1.16518 195.262 0.264179C195.821 -0.557322 196.517 -1.4394 197.362 -1.97697C197.344 -1.9959 197.325 -2.01861 197.303 -2.03754C196.152 -3.16568 194.73 -3.97584 193.177 -4.37712L193.184 -4.37333ZM197.522 -1.8104C196.889 -1.16304 196.223 -0.587603 195.683 0.154389C195.139 0.903966 194.689 1.72547 194.35 2.5924C193.679 4.31112 193.441 6.2154 193.739 8.0438C194.067 10.0464 195.027 11.9772 196.737 13.1054C198.349 14.1692 200.382 14.4758 202.259 14.1843C203.145 14.048 203.998 13.7831 204.825 13.4386C204.02 13.5142 203.205 13.4423 202.434 13.1924C200.77 12.6473 199.369 11.3867 198.558 9.8232C197.09 7.01037 197.712 3.7054 199.556 1.30904C199.019 0.169536 198.386 -0.894255 197.515 -1.8104H197.522ZM222.006 2.36147C221.879 1.08568 221.384 -0.167398 220.516 -1.10625C218.867 -2.88933 216.104 -3.50262 214.108 -1.9429C213.077 -1.13655 212.395 0.10896 212.417 1.44532C212.429 2.05483 211.445 2.22518 211.345 1.59297C211.077 -0.0765409 209.513 -0.996473 207.964 -1.15547C206.322 -1.32582 204.59 -0.973752 203.116 -0.224174C202.151 0.264179 201.287 0.964542 200.587 1.7974C200.553 1.86554 200.501 1.92612 200.438 1.97154C199.183 3.5502 198.524 5.58687 198.945 7.66154C199.518 10.4856 202.106 12.7457 205.011 12.3142C206.396 12.1097 207.759 11.3526 208.574 10.1828C209.528 8.81996 209.755 7.11258 208.965 5.62103C208.615 4.95847 207.968 4.33383 207.249 4.11805C206.478 3.88712 205.607 4.06883 204.959 4.54584C203.946 5.29544 203.797 6.74529 204.419 7.73344C204.612 7.88491 204.806 8.04009 204.996 8.20282C205.156 8.33919 205.417 8.49438 205.521 8.68359C205.662 8.93344 205.45 9.14171 205.234 9.24009C204.557 9.55442 203.704 9.47101 203.03 9.18342C201.417 8.49054 200.747 6.62798 201.119 4.95847C201.92 1.38097 207.238 -0.636818 209.643 2.52047C210.615 3.79626 210.764 5.3635 210.496 6.88167C210.552 7.24128 210.563 7.61229 210.526 7.98329C210.332 9.92529 209.163 11.6327 207.502 12.5943C207.279 12.723 207.04 12.8366 206.802 12.9389C206.18 14.5061 204.605 15.6342 203.197 16.3876C201.213 17.4476 199.008 18.0912 196.763 18.2009C192.566 18.4092 188.276 16.6033 185.781 13.0977C184.523 11.326 183.685 9.10384 183.692 6.89676C182.933 6.26452 182.382 5.44307 182.047 4.53826C181.823 4.45119 181.603 4.36412 181.384 4.25433C181.041 4.08398 180.702 3.90984 180.349 3.75841C179.689 3.47069 178.989 3.27384 178.282 3.14511C176.841 2.8839 175.329 2.98612 173.933 3.43662C171.158 4.33006 169.062 6.73403 168.261 9.54674C168.071 10.2093 167.96 10.8907 167.93 11.5797C168.451 10.6371 169.46 9.92158 170.35 9.46346C171.784 8.72529 173.404 8.38077 175.009 8.43002C178.174 8.52469 181.067 10.213 182.762 12.9312C183.488 14.0973 183.961 15.4033 184.143 16.7623C184.277 17.0879 184.385 17.4628 184.415 17.8299C184.966 17.4552 185.655 17.3189 186.333 17.4438C187.39 17.6369 188.161 18.5341 188.5 19.5298C188.548 19.6774 188.589 19.8212 188.623 19.9688C189.732 19.8591 190.879 20.0067 191.959 20.2415C193.363 20.5443 194.715 21.0478 196.033 21.6194C198.759 22.8044 201.373 24.3074 204.27 25.0494C206.85 25.7118 209.692 25.6967 212.023 24.2506C214.134 22.9407 215.445 20.3854 214.771 17.8716C214.409 16.5277 213.441 15.4714 212.175 14.9528C211.278 14.5856 210.314 14.5023 209.371 14.6348C208.612 14.9415 207.941 15.4563 207.472 16.24C206.914 17.1637 206.694 18.2653 206.78 19.3443C206.869 20.4194 207.305 21.6006 208.224 22.2138C209.152 22.8309 210.403 22.7741 211.315 22.1571C212.227 21.54 212.805 20.4156 212.801 19.3064C212.801 18.7006 212.671 18.0987 212.257 17.6444C211.866 17.2129 211.256 16.9517 210.678 17.069C210.176 17.1712 209.77 17.5839 209.673 18.0987C209.587 18.5606 209.781 19.0111 210.239 19.1549C210.541 19.2496 210.987 19.1966 211.185 18.9165C211.464 18.519 212.119 18.9014 211.837 19.3026C211.252 20.1392 210.008 20.0673 209.438 19.2345C208.865 18.394 209.401 17.194 210.261 16.8116C211.334 16.3345 212.544 17.0653 213.009 18.0647C213.534 19.1966 213.345 20.533 212.682 21.5703C212.023 22.6037 210.894 23.2701 209.673 23.2624C208.411 23.2549 207.323 22.5318 206.739 21.4037C205.618 19.2458 206.124 16.1983 208.023 14.6538C209.2 13.696 210.649 13.3553 212.082 13.4801C211.408 12.8556 210.965 11.9242 210.783 11.0572C210.448 9.46346 210.686 7.73715 211.39 6.27591C212.73 3.50854 216.141 1.72547 219.075 2.97476C220.274 3.48583 221.19 4.47391 221.719 5.6589C221.958 4.57991 222.121 3.48962 222.01 2.37283L222.006 2.36147ZM210.41 6.44248C210.496 5.49988 210.41 4.55341 210.038 3.66376C209.36 2.03589 207.826 1.07432 206.087 1.18032C204.486 1.27876 202.888 2.19869 201.983 3.54641C201.112 4.84487 200.937 6.66201 201.879 7.97945C202.378 8.67604 203.194 9.13787 204.039 9.20606C204.255 9.22499 204.475 9.21745 204.687 9.17958C204.847 9.1531 205.238 9.08875 205.327 8.93728C205.387 8.8389 205.312 8.72145 205.208 8.61553C203.972 8.08922 203.402 6.44632 203.961 5.21971C204.639 3.73191 206.504 3.16026 207.968 3.67512C209.226 4.11805 210.086 5.19322 210.406 6.44248H210.41ZM236.048 6.63553C235.166 5.01911 233.792 3.71298 232.157 2.9104C230.567 2.13054 228.735 1.91097 227.029 2.41447C225.365 2.90662 223.894 4.00827 222.97 5.50359C224.169 4.92444 225.681 4.93199 226.94 5.11749C228.69 5.37489 230.355 6.13966 231.736 7.26022C234.529 9.53165 235.854 13.2454 234.942 16.7927C234.648 17.936 234.145 19.0111 233.46 19.95C235.694 18.3032 237.005 15.3087 237.225 12.564C237.389 10.5273 237.035 8.43374 236.056 6.63553H236.048ZM245.049 21.3204C244.821 20.6654 244.434 20.056 243.976 19.6168C242.49 18.1972 240.226 18.1177 238.502 19.136C236.763 20.162 235.75 22.2176 235.747 24.2354C235.747 25.25 235.996 26.2759 236.543 27.1315C237.095 27.9946 237.94 28.6116 238.882 28.9676C240.137 29.4408 241.41 29.4522 242.676 29.2742C242.379 29.1985 242.084 29.1001 241.798 28.9751C239.992 28.1877 238.614 26.3327 238.551 24.3111C238.491 22.3728 239.902 20.5292 241.786 20.1431C242.766 19.9423 243.753 20.1582 244.538 20.7941C244.728 20.9494 244.9 21.1274 245.049 21.3241V21.3204ZM261.656 27.5328C257.501 27.1732 253.524 28.6079 249.48 29.3121C248.459 29.49 247.42 29.5505 246.385 29.5505C245.842 29.5505 245.317 29.5051 244.795 29.4294C244.393 29.4673 243.983 29.4711 243.581 29.4294C242.04 29.7436 240.457 29.8118 238.956 29.2893C237.992 28.9525 237.106 28.3732 236.488 27.5365C235.847 26.6658 235.523 25.587 235.475 24.508C235.382 22.3766 236.387 20.1696 238.171 19.0073C239.928 17.864 242.3 17.8527 243.931 19.2345C244.747 19.9273 245.354 20.938 245.462 22.0246C245.462 22.0472 245.462 22.07 245.462 22.0926C245.618 22.5243 245.674 22.9936 245.585 23.4593C245.402 24.4096 244.561 25.3938 243.54 25.3447C242.688 25.3029 241.995 24.6102 241.794 23.7887C241.705 23.4177 241.753 23.0808 241.958 22.7627C242.01 22.6794 242.155 22.7287 242.122 22.8346C241.891 23.5502 242.364 24.489 243.179 24.4436C243.875 24.4058 244.523 23.7281 244.542 23.0201C244.561 22.2858 244.006 21.6346 243.377 21.3469C242.743 21.0592 242.006 21.1311 241.392 21.4302C240.003 22.1116 239.351 23.641 239.764 25.1402C240.193 26.681 241.489 27.8508 243 28.218C244.438 28.5662 245.994 28.2294 247.238 27.4343C248.59 26.5674 249.431 25.1478 249.688 23.5577C249.953 21.9185 249.562 20.1657 248.657 18.7878C247.744 17.3984 246.289 16.4255 244.728 15.956C242.911 15.407 240.971 15.551 239.221 16.293C238.39 16.645 237.579 17.069 236.826 17.5763C235.445 20.1279 233.155 22.0889 230.116 22.3047C227.942 22.4599 225.778 21.4339 224.564 19.5827C223.436 17.864 223.447 15.5282 224.635 13.8397C225.22 13.0032 226.046 12.352 227.033 12.0908C228.094 11.8106 229.278 11.9696 230.15 12.6776C231.323 13.6278 231.528 15.3238 230.887 16.5542C231.118 16.2589 231.308 15.9144 231.438 15.532C231.822 14.419 231.744 13.1849 231.33 12.0908C230.448 9.75872 228.176 8.36568 225.748 8.50192C223.235 8.64201 221.135 10.3229 220.196 12.6624C219.258 15.0096 219.645 17.6709 220.989 19.7721C221.771 20.991 222.851 21.9829 224.102 22.6833C225.033 23.2056 226.016 23.5275 227.037 23.7395C228.951 23.3155 230.954 23.7735 232.518 24.9887C234.067 26.1964 235.102 28.0476 235.192 30.0351C235.795 30.7203 236.45 31.3336 237.243 31.7993C238.171 32.3406 239.195 32.67 240.249 32.829C242.665 33.1962 245.156 32.7268 247.487 32.0946C252.068 30.8566 256.499 28.7063 261.31 28.5662C263.451 28.5057 265.675 28.8502 267.574 29.8912C265.947 28.4829 263.768 27.7107 261.645 27.529L261.656 27.5328Z" fill="white"/>
<path d="M189.661 33.9535C189.661 33.9535 189.661 33.927 189.665 33.9117C189.665 33.961 189.661 33.9685 189.661 33.9535Z" fill="white"/>
</g>
</g>
<defs>
<linearGradient id="paint0_linear_85_764" x1="0" y1="22" x2="238" y2="22" gradientUnits="userSpaceOnUse">
<stop stop-color="#4891A1"/>
<stop offset="1" stop-color="#66A3B0"/>
</linearGradient>
<clipPath id="clip0_85_764">
<rect width="238" height="44" rx="8" fill="white"/>
</clipPath>
</defs>
</svg>
