<svg width="140" height="141" viewBox="0 0 140 141" fill="none" xmlns="http://www.w3.org/2000/svg">
<path opacity="0.2" d="M67.9944 64.2451C38.2741 64.2451 14.1807 88.6958 14.1807 118.857C14.1807 125.724 15.4296 132.295 17.7094 138.349H118.279C120.559 132.295 121.808 125.724 121.808 118.857C121.808 88.6958 97.715 64.2451 67.9944 64.2451Z" fill="#589F45"/>
<path opacity="0.2" d="M67.9938 46.6016C32.4268 46.6016 3.59375 76.8738 3.59375 114.217C3.59375 122.719 5.08834 130.854 7.8167 138.35H128.171C130.899 130.854 132.394 122.719 132.394 114.217C132.394 76.8738 103.561 46.6016 67.9938 46.6016Z" fill="#589F45"/>
<path fill-rule="evenodd" clip-rule="evenodd" d="M131.273 138.587C131.273 139.515 102.942 140.267 67.9929 140.267C33.0445 140.267 4.71289 139.515 4.71289 138.587C4.71289 137.659 33.0445 136.907 67.9929 136.907C102.942 136.907 131.273 137.659 131.273 138.587Z" fill="#589F45"/>
<path d="M117.172 19.6992L136.727 39.2371L51.2652 124.979L0 73.7605L19.555 54.2226L51.2652 85.9041L117.172 19.6992Z" fill="#467F37"/>
</svg>
