<svg width="140" height="141" viewBox="0 0 140 141" fill="none" xmlns="http://www.w3.org/2000/svg">
<g clip-path="url(#clip0_133_9213)">
<path opacity="0.2" d="M70.5598 64.2451C40.8395 64.2451 16.7461 88.6958 16.7461 118.857C16.7461 125.724 17.995 132.295 20.2749 138.349H120.845C123.125 132.295 124.374 125.724 124.374 118.857C124.374 88.6958 100.28 64.2451 70.5598 64.2451Z" fill="#C33F1E"/>
<path opacity="0.2" d="M70.5602 46.6016C34.9933 46.6016 6.16016 76.8738 6.16016 114.217C6.16016 122.719 7.65474 130.854 10.3831 138.35H130.737C133.466 130.854 134.96 122.719 134.96 114.217C134.96 76.8738 106.127 46.6016 70.5602 46.6016Z" fill="#C33F1E"/>
<path fill-rule="evenodd" clip-rule="evenodd" d="M133.84 138.587C133.84 139.515 105.509 140.267 70.5603 140.267C35.6119 140.267 7.28027 139.515 7.28027 138.587C7.28027 137.659 35.6119 136.907 70.5603 136.907C105.509 136.907 133.84 137.659 133.84 138.587Z" fill="#C33F1E"/>
<path d="M126 100.364L89.7561 64.1132L125.987 27.869L107.364 9.22656L71.1137 45.4707L34.8695 9.22656L16.2402 27.869L52.4712 64.1132L16.2402 100.357L34.8827 118.987L71.1137 82.7425L107.345 118.987L126 100.364Z" fill="#C33F1E"/>
</g>
<defs>
<clipPath id="clip0_133_9213">
<rect width="140" height="140" fill="white" transform="translate(0 0.5)"/>
</clipPath>
</defs>
</svg>
