<svg width="157" height="158" viewBox="0 0 157 158" fill="none" xmlns="http://www.w3.org/2000/svg">
<path opacity="0.2" d="M79.1272 70.2446C49.4069 70.2446 25.3135 94.6953 25.3135 124.857C25.3135 131.724 26.5624 138.295 28.8422 144.349H129.412C131.692 138.295 132.941 131.724 132.941 124.857C132.941 94.6953 108.848 70.2446 79.1272 70.2446Z" fill="url(#paint0_linear_132_9170)"/>
<path opacity="0.2" d="M79.1276 52.6006C43.5606 52.6006 14.7275 82.8728 14.7275 120.216C14.7275 128.718 16.2221 136.853 18.9505 144.349H139.305C142.033 136.853 143.528 128.718 143.528 120.216C143.528 82.8728 114.695 52.6006 79.1276 52.6006Z" fill="url(#paint1_linear_132_9170)"/>
<path fill-rule="evenodd" clip-rule="evenodd" d="M142.408 144.587C142.408 145.515 114.076 146.267 79.1277 146.267C44.1793 146.267 15.8477 145.515 15.8477 144.587C15.8477 143.659 44.1793 142.907 79.1277 142.907C114.076 142.907 142.408 143.659 142.408 144.587Z" fill="#D3AF21"/>
<path d="M71.9275 76.0486C77.1516 67.0131 87.1928 61.6828 93.0276 53.6873C99.2015 45.3019 95.7414 29.636 78.2372 29.636C66.7712 29.636 61.14 37.9565 58.7654 44.8468L41.1934 37.7615C46.0104 23.9157 59.1047 12.02 78.1693 12.02C94.1131 12.02 105.036 18.9754 110.6 27.6859C115.349 35.1613 118.131 49.1371 110.803 59.5377C102.662 71.0433 94.8594 74.5535 90.653 81.9639C88.9568 84.9541 88.2784 86.9042 88.2784 96.5247H68.6709C68.6031 91.4544 67.7889 83.199 71.9275 76.0486ZM91.8063 122.526C91.8063 129.677 85.7002 135.527 78.2372 135.527C70.7741 135.527 64.668 129.677 64.668 122.526C64.668 115.376 70.7741 109.525 78.2372 109.525C85.7002 109.525 91.8063 115.376 91.8063 122.526Z" fill="#D3AF21"/>
<defs>
<linearGradient id="paint0_linear_132_9170" x1="25.3135" y1="144.349" x2="100.347" y2="45.5028" gradientUnits="userSpaceOnUse">
<stop stop-color="#FEE16F"/>
<stop offset="0.5" stop-color="#FED94B"/>
<stop offset="1" stop-color="#EABC04"/>
</linearGradient>
<linearGradient id="paint1_linear_132_9170" x1="14.7275" y1="144.349" x2="108.429" y2="25.036" gradientUnits="userSpaceOnUse">
<stop stop-color="#FEE16F"/>
<stop offset="0.5" stop-color="#FED94B"/>
<stop offset="1" stop-color="#EABC04"/>
</linearGradient>
</defs>
</svg>
